<svg xmlns="http://www.w3.org/2000/svg" xmlns:xlink="http://www.w3.org/1999/xlink" width="2000" zoomAndPan="magnify" viewBox="0 0 1500 1499.999933" height="2000" preserveAspectRatio="xMidYMid meet" version="1.0"><path fill="#000000" d="M 1044.308594 988.078125 L 1044.308594 889.679688 C 1167.617188 863.667969 1259.25 755.089844 1259.25 623.890625 C 1259.25 473.46875 1138.203125 352.449219 987.742188 352.449219 C 837.28125 352.449219 716.234375 474.597656 716.234375 625.023438 C 716.234375 755.089844 807.871094 864.796875 931.179688 890.808594 L 931.179688 989.207031 C 911.949219 993.730469 897.242188 1011.828125 897.242188 1033.316406 L 897.242188 1304.757812 C 897.242188 1329.640625 917.605469 1350 942.492188 1350 L 1032.996094 1350 C 1057.882812 1350 1078.246094 1329.640625 1078.246094 1304.757812 L 1078.246094 1032.1875 C 1078.246094 1010.699219 1063.539062 993.730469 1044.308594 988.078125 Z M 761.488281 625.023438 C 761.488281 500.613281 863.300781 398.820312 987.742188 398.820312 C 1112.183594 398.820312 1214 500.613281 1214 625.023438 C 1214 749.433594 1112.183594 851.226562 987.742188 851.226562 C 863.300781 851.226562 761.488281 749.433594 761.488281 625.023438 Z M 999.054688 896.464844 L 999.054688 986.945312 L 976.429688 986.945312 L 976.429688 896.464844 Z M 1032.996094 1303.628906 L 942.492188 1303.628906 L 942.492188 1032.1875 L 1032.996094 1032.1875 Z M 1032.996094 1303.628906 " fill-opacity="1" fill-rule="nonzero"/><path fill="#000000" d="M 1154.042969 553.769531 C 1043.175781 556.03125 939.097656 578.652344 849.726562 620.5 C 846.332031 621.628906 842.941406 622.761719 840.675781 622.761719 C 831.625 622.761719 823.707031 618.238281 820.3125 609.1875 C 814.65625 597.878906 820.3125 584.308594 831.625 578.652344 C 918.734375 537.9375 1020.550781 515.316406 1126.890625 509.660156 C 1104.265625 482.515625 1073.722656 462.160156 1037.519531 451.980469 C 970.773438 463.289062 907.421875 481.386719 850.859375 507.398438 C 823.707031 537.9375 806.738281 579.78125 806.738281 625.023438 C 806.738281 651.035156 812.394531 675.917969 822.578125 698.539062 C 824.839844 695.144531 827.101562 692.882812 830.496094 691.753906 C 928.917969 646.511719 1045.4375 621.628906 1167.617188 620.5 C 1167.617188 597.878906 1163.09375 574.128906 1154.042969 553.769531 Z M 1154.042969 553.769531 " fill-opacity="1" fill-rule="nonzero"/><path fill="#000000" d="M 1425.550781 185.0625 C 1347.492188 162.441406 1263.777344 150 1176.667969 150 C 1014.894531 150 859.910156 191.847656 749.042969 266.492188 C 639.308594 191.847656 485.453125 150 323.679688 150 C 236.570312 150 152.855469 161.308594 74.796875 185.0625 C 46.515625 192.976562 26.152344 220.121094 26.152344 249.527344 L 26.152344 1103.441406 C 26.152344 1124.929688 35.203125 1144.15625 52.171875 1156.597656 C 69.140625 1169.039062 89.503906 1174.695312 109.867188 1169.039062 C 177.746094 1153.203125 249.015625 1144.15625 322.550781 1144.15625 C 471.878906 1144.15625 611.027344 1178.085938 715.105469 1239.160156 C 725.285156 1245.945312 737.730469 1248.210938 749.042969 1248.210938 C 760.355469 1248.210938 772.800781 1244.816406 782.980469 1239.160156 C 804.476562 1226.71875 827.101562 1215.410156 850.859375 1205.230469 L 850.859375 1071.773438 C 849.726562 1071.773438 849.726562 1071.773438 848.597656 1072.902344 C 845.203125 1074.035156 841.808594 1075.164062 839.546875 1075.164062 C 830.496094 1075.164062 822.578125 1070.640625 819.183594 1061.59375 C 813.527344 1050.28125 819.183594 1036.710938 830.496094 1031.054688 C 837.28125 1027.664062 845.203125 1025.402344 851.988281 1022.007812 C 854.253906 998.257812 866.695312 975.636719 885.929688 960.933594 L 885.929688 943.96875 C 873.484375 948.492188 862.171875 954.148438 849.726562 958.671875 C 846.332031 959.800781 842.941406 960.933594 840.675781 960.933594 C 831.625 960.933594 823.707031 956.410156 820.3125 947.359375 C 814.65625 936.050781 820.3125 922.480469 831.625 916.824219 C 838.414062 913.429688 844.070312 911.167969 850.859375 908.90625 C 743.386719 858.011719 670.984375 748.304688 670.984375 625.023438 C 670.984375 622.761719 670.984375 620.5 670.984375 619.367188 C 667.589844 621.628906 663.066406 622.761719 659.671875 622.761719 C 656.277344 622.761719 652.882812 621.628906 650.621094 620.5 C 555.59375 576.390625 442.464844 553.769531 323.679688 553.769531 C 262.589844 553.769531 201.503906 560.554688 144.9375 571.867188 C 132.496094 574.128906 121.179688 566.210938 117.789062 554.902344 C 115.523438 542.460938 123.445312 531.148438 134.757812 527.757812 C 194.714844 515.316406 259.199219 508.53125 323.679688 508.53125 C 449.253906 508.53125 569.167969 533.410156 669.851562 579.78125 C 672.117188 580.914062 673.246094 582.046875 674.378906 583.175781 C 693.609375 440.667969 806.738281 328.699219 949.28125 310.601562 C 1020.550781 291.375 1097.476562 281.195312 1177.800781 281.195312 C 1242.28125 281.195312 1305.632812 287.984375 1366.722656 300.425781 C 1379.167969 302.6875 1387.085938 315.128906 1383.691406 327.566406 C 1380.296875 340.007812 1368.984375 347.925781 1356.542969 344.535156 C 1298.847656 332.09375 1238.886719 326.4375 1177.800781 326.4375 C 1152.910156 326.4375 1128.023438 327.566406 1104.265625 329.832031 C 1142.730469 344.535156 1176.667969 367.152344 1206.082031 395.429688 C 1260.382812 396.558594 1314.683594 403.347656 1365.59375 414.65625 C 1378.035156 416.917969 1385.957031 429.359375 1382.5625 441.800781 C 1380.296875 454.242188 1367.855469 462.160156 1355.410156 458.765625 C 1320.339844 450.847656 1283.007812 446.324219 1245.675781 442.929688 C 1283.007812 494.957031 1304.503906 557.164062 1304.503906 625.023438 C 1304.503906 627.285156 1304.503906 628.417969 1304.503906 630.679688 C 1324.867188 634.070312 1346.359375 637.464844 1365.59375 640.859375 C 1378.035156 643.121094 1385.957031 655.5625 1382.5625 668 C 1379.167969 680.441406 1367.855469 688.359375 1355.410156 684.96875 C 1337.308594 681.574219 1318.078125 678.179688 1299.976562 674.789062 C 1296.582031 698.539062 1289.796875 721.160156 1280.746094 742.648438 C 1280.746094 741.515625 1281.878906 740.386719 1281.878906 739.253906 C 1310.160156 742.648438 1338.441406 747.171875 1365.59375 752.828125 C 1378.035156 755.089844 1385.957031 767.53125 1382.5625 779.972656 C 1379.167969 792.414062 1367.855469 800.328125 1355.410156 796.9375 C 1324.867188 790.152344 1293.191406 785.625 1260.382812 782.234375 C 1246.808594 805.984375 1229.839844 827.472656 1210.605469 846.703125 C 1262.644531 848.964844 1314.683594 854.617188 1364.460938 864.796875 C 1376.90625 867.058594 1384.824219 879.5 1381.429688 891.941406 C 1378.035156 904.382812 1366.722656 912.300781 1354.277344 908.90625 C 1296.582031 896.464844 1236.625 890.8125 1175.535156 890.8125 C 1168.75 890.8125 1160.828125 890.8125 1154.042969 890.8125 C 1133.679688 904.382812 1111.054688 914.5625 1087.296875 922.480469 L 1087.296875 959.800781 C 1088.425781 960.933594 1089.558594 962.0625 1090.691406 963.195312 C 1118.972656 960.933594 1147.253906 959.800781 1175.535156 959.800781 C 1240.019531 959.800781 1303.371094 966.589844 1364.460938 979.027344 C 1376.90625 981.292969 1384.824219 993.730469 1381.429688 1006.171875 C 1378.035156 1018.613281 1366.722656 1026.53125 1354.277344 1023.136719 C 1296.582031 1010.699219 1236.625 1005.042969 1175.535156 1005.042969 C 1156.304688 1005.042969 1137.074219 1006.171875 1117.839844 1007.304688 C 1120.105469 1015.222656 1121.234375 1023.136719 1121.234375 1032.1875 L 1121.234375 1146.417969 C 1139.335938 1145.289062 1157.4375 1145.289062 1175.535156 1145.289062 C 1249.070312 1145.289062 1321.472656 1153.203125 1388.21875 1170.167969 C 1408.582031 1174.695312 1430.074219 1170.167969 1445.914062 1157.730469 C 1462.882812 1145.289062 1471.933594 1124.929688 1471.933594 1104.570312 L 1471.933594 249.527344 C 1474.195312 220.121094 1453.832031 192.976562 1425.550781 185.0625 Z M 680.035156 1061.59375 C 676.640625 1069.507812 667.589844 1075.164062 659.671875 1075.164062 C 656.277344 1075.164062 652.882812 1074.035156 650.621094 1072.902344 C 555.59375 1028.792969 442.464844 1006.171875 323.679688 1006.171875 C 262.589844 1006.171875 201.503906 1012.960938 144.9375 1024.269531 C 132.496094 1026.53125 121.179688 1018.613281 117.789062 1007.304688 C 115.523438 994.863281 123.445312 983.554688 134.757812 980.160156 C 194.714844 967.71875 259.199219 960.933594 323.679688 960.933594 C 449.253906 960.933594 569.167969 985.816406 669.851562 1032.1875 C 680.035156 1036.710938 685.691406 1050.28125 680.035156 1061.59375 Z M 680.035156 948.492188 C 676.640625 956.410156 667.589844 962.0625 659.671875 962.0625 C 656.277344 962.0625 652.882812 960.933594 650.621094 959.800781 C 555.59375 915.691406 442.464844 893.074219 323.679688 893.074219 C 262.589844 893.074219 201.503906 899.859375 144.9375 911.167969 C 132.496094 913.429688 121.179688 905.511719 117.789062 894.203125 C 115.523438 881.761719 123.445312 870.453125 134.757812 867.058594 C 194.714844 854.617188 259.199219 847.832031 323.679688 847.832031 C 449.253906 847.832031 569.167969 872.714844 669.851562 919.085938 C 680.035156 923.609375 685.691406 937.183594 680.035156 948.492188 Z M 680.035156 835.390625 C 676.640625 843.308594 667.589844 848.964844 659.671875 848.964844 C 656.277344 848.964844 652.882812 847.832031 650.621094 846.699219 C 555.59375 802.589844 442.464844 779.972656 323.679688 779.972656 C 262.589844 779.972656 201.503906 786.757812 144.9375 798.066406 C 132.496094 800.328125 121.179688 792.414062 117.789062 781.101562 C 115.523438 768.660156 123.445312 757.351562 134.757812 753.957031 C 194.714844 741.515625 259.199219 734.730469 323.679688 734.730469 C 449.253906 734.730469 569.167969 759.613281 669.851562 805.984375 C 680.035156 810.507812 685.691406 824.082031 680.035156 835.390625 Z M 134.757812 640.859375 C 194.714844 628.417969 259.199219 621.628906 323.679688 621.628906 C 449.253906 621.628906 569.167969 646.511719 669.851562 692.882812 C 681.167969 698.539062 685.691406 712.109375 681.167969 723.421875 C 677.773438 731.339844 668.722656 736.992188 660.804688 736.992188 C 657.410156 736.992188 654.015625 735.863281 651.753906 734.730469 C 556.726562 690.621094 443.597656 668 324.8125 668 C 263.722656 668 202.632812 674.789062 146.070312 686.097656 C 133.625 688.359375 122.3125 680.441406 118.917969 669.132812 C 114.394531 655.5625 122.3125 643.121094 134.757812 640.859375 Z M 680.035156 496.089844 C 676.640625 504.003906 667.589844 509.660156 659.671875 509.660156 C 656.277344 509.660156 652.882812 508.53125 650.621094 507.398438 C 555.59375 463.289062 442.464844 440.667969 323.679688 440.667969 C 262.589844 440.667969 201.503906 447.457031 144.9375 458.765625 C 132.496094 461.027344 121.179688 453.109375 117.789062 441.800781 C 115.523438 429.359375 123.445312 418.050781 134.757812 414.65625 C 194.714844 402.214844 259.199219 395.429688 323.679688 395.429688 C 449.253906 395.429688 569.167969 420.3125 669.851562 466.683594 C 680.035156 471.207031 685.691406 484.777344 680.035156 496.089844 Z M 680.035156 382.988281 C 676.640625 390.90625 667.589844 396.558594 659.671875 396.558594 C 656.277344 396.558594 652.882812 395.429688 650.621094 394.296875 C 555.59375 350.1875 442.464844 327.566406 323.679688 327.566406 C 262.589844 327.566406 201.503906 334.355469 144.9375 345.664062 C 132.496094 347.925781 121.179688 340.007812 117.789062 328.699219 C 115.523438 316.257812 123.445312 304.949219 134.757812 301.554688 C 194.714844 289.113281 259.199219 282.328125 323.679688 282.328125 C 449.253906 282.328125 569.167969 307.210938 669.851562 353.582031 C 680.035156 358.105469 685.691406 371.675781 680.035156 382.988281 Z M 680.035156 382.988281 " fill-opacity="1" fill-rule="nonzero"/><path fill="#000000" d="M 1164.222656 666.871094 C 1049.964844 668 941.359375 691.753906 850.859375 733.601562 C 848.597656 734.730469 847.464844 734.730469 845.203125 735.863281 C 858.777344 753.957031 875.746094 768.660156 896.109375 781.101562 C 968.511719 756.21875 1048.832031 740.386719 1132.546875 736.992188 C 1146.125 715.503906 1157.4375 691.753906 1164.222656 666.871094 Z M 1164.222656 666.871094 " fill-opacity="1" fill-rule="nonzero"/></svg>