<svg xmlns="http://www.w3.org/2000/svg" xmlns:xlink="http://www.w3.org/1999/xlink" width="2000" zoomAndPan="magnify" viewBox="0 0 1500 1499.999933" height="2000" preserveAspectRatio="xMidYMid meet" version="1.0"><defs><g/><clipPath id="7f5f845972"><path d="M 102.117188 297 L 512 297 L 512 776 L 102.117188 776 Z M 102.117188 297 " clip-rule="nonzero"/></clipPath><clipPath id="ea6a5bdcb8"><path d="M 529 276.007812 L 971 276.007812 L 971 876.085938 L 529 876.085938 Z M 529 276.007812 " clip-rule="nonzero"/></clipPath><clipPath id="5af847eadd"><rect x="0" width="1079" y="0" height="178"/></clipPath><clipPath id="a809e0d37e"><rect x="0" width="339" y="0" height="73"/></clipPath></defs><g clip-path="url(#7f5f845972)"><path fill="#211d1d" d="M 120.875 505.960938 L 460.164062 302.214844 C 465.269531 299.378906 470.957031 297.953125 477.210938 297.953125 C 486.585938 297.953125 494.609375 301.292969 501.285156 307.96875 C 507.964844 314.648438 511.308594 322.675781 511.308594 332.054688 C 511.308594 344.273438 505.480469 354.21875 493.828125 361.890625 L 202.285156 536.648438 L 493.828125 711.398438 C 505.480469 719.070312 511.308594 729.015625 511.308594 741.234375 C 511.308594 750.621094 507.964844 758.636719 501.285156 765.320312 C 494.609375 772 486.585938 775.332031 477.210938 775.332031 C 470.957031 775.332031 465.269531 773.914062 460.164062 771.074219 L 120.875 567.332031 C 108.371094 559.375 102.117188 549.144531 102.117188 536.648438 C 102.117188 524.140625 108.371094 513.910156 120.875 505.960938 " fill-opacity="1" fill-rule="nonzero"/></g><path fill="#211d1d" d="M 1397.871094 536.648438 C 1397.871094 549.144531 1391.621094 559.375 1379.113281 567.332031 L 1039.828125 771.074219 C 1034.71875 773.914062 1029.039062 775.332031 1022.785156 775.332031 C 1013.40625 775.332031 1005.382812 772 998.703125 765.320312 C 992.023438 758.636719 988.691406 750.621094 988.691406 741.234375 C 988.691406 729.015625 994.511719 719.070312 1006.160156 711.398438 L 1297.707031 536.648438 L 1006.160156 361.890625 C 994.511719 354.21875 988.691406 344.273438 988.691406 332.054688 C 988.691406 322.675781 992.023438 314.648438 998.703125 307.96875 C 1005.382812 301.292969 1013.40625 297.953125 1022.785156 297.953125 C 1029.039062 297.953125 1034.71875 299.378906 1039.828125 302.214844 L 1379.113281 505.960938 C 1391.621094 513.910156 1397.871094 524.140625 1397.871094 536.648438 " fill-opacity="1" fill-rule="nonzero"/><g clip-path="url(#ea6a5bdcb8)"><path fill="#004aad" d="M 916.851562 521.804688 C 878.109375 588.980469 792.234375 611.992188 725.050781 573.199219 C 657.863281 534.410156 634.851562 448.535156 673.644531 381.351562 C 712.445312 314.207031 798.320312 291.195312 865.453125 329.953125 C 932.636719 368.746094 955.644531 454.621094 916.851562 521.804688 Z M 883.003906 299.546875 C 882.949219 299.515625 882.90625 299.527344 882.835938 299.453125 C 798.914062 251.113281 691.6875 279.9375 643.238281 363.796875 C 597.875 442.425781 620.207031 541.476562 692.046875 593.570312 L 659.617188 649.746094 L 647.320312 642.644531 C 644.847656 641.183594 641.628906 642.046875 640.222656 644.546875 L 529.898438 835.699219 C 528.433594 838.171875 529.292969 841.386719 531.753906 842.808594 L 588.210938 875.402344 C 590.667969 876.820312 593.886719 875.957031 595.351562 873.488281 L 705.671875 682.339844 C 707.082031 679.835938 706.230469 676.660156 703.761719 675.195312 L 691.464844 668.097656 L 715.988281 625.617188 L 723.851562 611.933594 C 804.945312 648.132812 901.929688 617.9375 947.261719 539.359375 C 995.730469 455.40625 966.972656 348.0625 883.003906 299.546875 " fill-opacity="1" fill-rule="nonzero"/></g><path fill="#004aad" d="M 824.507812 331.378906 C 759.5625 343.566406 705.710938 384.496094 675.480469 439.710938 C 681.925781 381.089844 729.425781 333.574219 790.363281 329.132812 C 802.089844 328.28125 813.550781 329.117188 824.507812 331.378906 " fill-opacity="1" fill-rule="nonzero"/><g transform="matrix(1, 0, 0, 1, 219, 936)"><g clip-path="url(#5af847eadd)"><g fill="#211d1d" fill-opacity="1"><g transform="translate(6.621967, 127.123791)"><g><path d="M 67.046875 -115.46875 L 113.65625 0 L 85.375 0 L 76.84375 -23.09375 L 32.890625 -23.09375 L 24.359375 0 L -3.921875 0 L 42.6875 -115.46875 Z M 67.890625 -46.1875 L 55 -79.78125 L 54.734375 -79.78125 L 41.84375 -46.1875 Z M 67.890625 -46.1875 "/></g></g></g><g fill="#211d1d" fill-opacity="1"><g transform="translate(134.534744, 127.123791)"><g><path d="M 50.953125 -117.578125 C 57.203125 -117.578125 63.3125 -116.664062 69.28125 -114.84375 C 75.257812 -113.019531 79.691406 -111.222656 82.578125 -109.453125 L 86.78125 -106.65625 L 76.140625 -85.65625 C 75.304688 -86.21875 74.140625 -86.941406 72.640625 -87.828125 C 71.148438 -88.710938 68.351562 -89.898438 64.25 -91.390625 C 60.144531 -92.890625 56.316406 -93.640625 52.765625 -93.640625 C 48.378906 -93.640625 44.992188 -92.707031 42.609375 -90.84375 C 40.234375 -88.976562 39.046875 -86.457031 39.046875 -83.28125 C 39.046875 -81.695312 39.601562 -80.226562 40.71875 -78.875 C 41.84375 -77.519531 43.757812 -76.070312 46.46875 -74.53125 C 49.175781 -72.988281 51.554688 -71.75 53.609375 -70.8125 C 55.660156 -69.882812 58.832031 -68.488281 63.125 -66.625 C 70.59375 -63.445312 76.960938 -59.128906 82.234375 -53.671875 C 87.503906 -48.210938 90.140625 -42.03125 90.140625 -35.125 C 90.140625 -28.5 88.945312 -22.710938 86.5625 -17.765625 C 84.1875 -12.828125 80.921875 -8.957031 76.765625 -6.15625 C 72.617188 -3.351562 68.023438 -1.28125 62.984375 0.0625 C 57.941406 1.414062 52.484375 2.09375 46.609375 2.09375 C 41.566406 2.09375 36.617188 1.578125 31.765625 0.546875 C 26.921875 -0.472656 22.863281 -1.75 19.59375 -3.28125 C 16.332031 -4.820312 13.394531 -6.335938 10.78125 -7.828125 C 8.164062 -9.328125 6.25 -10.59375 5.03125 -11.625 L 3.21875 -13.15625 L 16.375 -35.265625 C 17.5 -34.335938 19.039062 -33.148438 21 -31.703125 C 22.957031 -30.253906 26.429688 -28.316406 31.421875 -25.890625 C 36.410156 -23.460938 40.820312 -22.25 44.65625 -22.25 C 55.757812 -22.25 61.3125 -26.03125 61.3125 -33.59375 C 61.3125 -35.175781 60.910156 -36.644531 60.109375 -38 C 59.316406 -39.351562 57.914062 -40.707031 55.90625 -42.0625 C 53.90625 -43.414062 52.132812 -44.488281 50.59375 -45.28125 C 49.0625 -46.070312 46.546875 -47.285156 43.046875 -48.921875 C 39.546875 -50.554688 36.953125 -51.789062 35.265625 -52.625 C 28.273438 -56.082031 22.863281 -60.398438 19.03125 -65.578125 C 15.207031 -70.753906 13.296875 -76.328125 13.296875 -82.296875 C 13.296875 -92.660156 17.117188 -101.128906 24.765625 -107.703125 C 32.421875 -114.285156 41.148438 -117.578125 50.953125 -117.578125 Z M 50.953125 -117.578125 "/></g></g></g><g fill="#211d1d" fill-opacity="1"><g transform="translate(246.774275, 127.123791)"><g><path d="M -4.203125 -115.46875 L 27.4375 -115.46875 L 51.515625 -78.515625 L 75.578125 -115.46875 L 107.21875 -115.46875 L 64.671875 -51.78125 L 64.671875 0 L 38.34375 0 L 38.34375 -51.78125 Z M -4.203125 -115.46875 "/></g></g></g><g fill="#211d1d" fill-opacity="1"><g transform="translate(367.969954, 127.123791)"><g><path d="M 103.859375 0 L 98.390625 -68.4375 L 97.703125 -68.4375 L 74.046875 -0.703125 L 58.359375 -0.703125 L 34.71875 -68.4375 L 34.015625 -68.4375 L 28.546875 0 L 2.234375 0 L 12.59375 -115.46875 L 40.59375 -115.46875 L 66.203125 -48.84375 L 91.8125 -115.46875 L 119.8125 -115.46875 L 130.171875 0 Z M 103.859375 0 "/></g></g></g><g fill="#211d1d" fill-opacity="1"><g transform="translate(518.552944, 127.123791)"><g><path d="M 8.390625 -115.46875 L 50.53125 -115.46875 C 62.289062 -115.46875 71.804688 -112.4375 79.078125 -106.375 C 86.359375 -100.3125 90 -91.492188 90 -79.921875 C 90 -68.347656 86.3125 -59.269531 78.9375 -52.6875 C 71.570312 -46.113281 62.101562 -42.828125 50.53125 -42.828125 L 34.71875 -42.828125 L 34.71875 0 L 8.390625 0 Z M 34.71875 -63.828125 L 42.125 -63.828125 C 48.007812 -63.828125 52.835938 -65.015625 56.609375 -67.390625 C 60.390625 -69.773438 62.28125 -73.671875 62.28125 -79.078125 C 62.28125 -84.585938 60.390625 -88.53125 56.609375 -90.90625 C 52.835938 -93.289062 48.007812 -94.484375 42.125 -94.484375 L 34.71875 -94.484375 Z M 34.71875 -63.828125 "/></g></g></g><g fill="#211d1d" fill-opacity="1"><g transform="translate(629.95279, 127.123791)"><g><path d="M 1.125 -92.375 L 1.125 -115.46875 L 82.296875 -115.46875 L 82.296875 -92.375 L 54.875 -92.375 L 54.875 0 L 28.546875 0 L 28.546875 -92.375 Z M 1.125 -92.375 "/></g></g></g><g fill="#211d1d" fill-opacity="1"><g transform="translate(731.55687, 127.123791)"><g><path d="M 3.21875 -57.8125 C 3.21875 -74.507812 8.910156 -88.644531 20.296875 -100.21875 C 31.679688 -111.789062 45.398438 -117.578125 61.453125 -117.578125 C 77.585938 -117.578125 91.300781 -111.8125 102.59375 -100.28125 C 113.882812 -88.757812 119.53125 -74.601562 119.53125 -57.8125 C 119.53125 -40.914062 113.976562 -26.707031 102.875 -15.1875 C 91.769531 -3.664062 77.960938 2.09375 61.453125 2.09375 C 44.554688 2.09375 30.625 -3.617188 19.65625 -15.046875 C 8.695312 -26.472656 3.21875 -40.726562 3.21875 -57.8125 Z M 31.640625 -57.8125 C 31.640625 -51.738281 32.570312 -46.207031 34.4375 -41.21875 C 36.300781 -36.226562 39.566406 -32.003906 44.234375 -28.546875 C 48.898438 -25.097656 54.640625 -23.375 61.453125 -23.375 C 71.242188 -23.375 78.632812 -26.734375 83.625 -33.453125 C 88.625 -40.171875 91.125 -48.289062 91.125 -57.8125 C 91.125 -67.226562 88.578125 -75.316406 83.484375 -82.078125 C 78.398438 -88.847656 71.054688 -92.234375 61.453125 -92.234375 C 51.929688 -92.234375 44.582031 -88.847656 39.40625 -82.078125 C 34.226562 -75.316406 31.640625 -67.226562 31.640625 -57.8125 Z M 31.640625 -57.8125 "/></g></g></g><g fill="#211d1d" fill-opacity="1"><g transform="translate(872.484028, 127.123791)"><g><path d="M 1.125 -92.375 L 1.125 -115.46875 L 82.296875 -115.46875 L 82.296875 -92.375 L 54.875 -92.375 L 54.875 0 L 28.546875 0 L 28.546875 -92.375 Z M 1.125 -92.375 "/></g></g></g><g fill="#211d1d" fill-opacity="1"><g transform="translate(974.088108, 127.123791)"><g><path d="M 74.46875 -115.46875 L 74.46875 -92.375 L 34.71875 -92.375 L 34.71875 -69.421875 L 72.78125 -69.421875 L 72.78125 -46.328125 L 34.71875 -46.328125 L 34.71875 -23.09375 L 74.46875 -23.09375 L 74.46875 0 L 8.390625 0 L 8.390625 -115.46875 Z M 74.46875 -115.46875 "/></g></g></g></g></g><g transform="matrix(1, 0, 0, 1, 596, 1145)"><g clip-path="url(#a809e0d37e)"><g fill="#737373" fill-opacity="1"><g transform="translate(1.915837, 53.114038)"><g><path d="M 1.8125 -37.0625 C 1.8125 -41.007812 2.75 -44.039062 4.625 -46.15625 C 6.507812 -48.269531 9.332031 -49.328125 13.09375 -49.328125 C 16.851562 -49.328125 19.675781 -48.269531 21.5625 -46.15625 C 23.445312 -44.039062 24.390625 -41.007812 24.390625 -37.0625 L 24.390625 -35.53125 L 17.140625 -35.53125 L 17.140625 -37.546875 C 17.140625 -39.316406 16.800781 -40.5625 16.125 -41.28125 C 15.457031 -42 14.519531 -42.359375 13.3125 -42.359375 C 12.101562 -42.359375 11.160156 -42 10.484375 -41.28125 C 9.804688 -40.5625 9.46875 -39.316406 9.46875 -37.546875 C 9.46875 -35.878906 9.835938 -34.40625 10.578125 -33.125 C 11.328125 -31.851562 12.257812 -30.644531 13.375 -29.5 C 14.488281 -28.363281 15.679688 -27.226562 16.953125 -26.09375 C 18.234375 -24.957031 19.429688 -23.710938 20.546875 -22.359375 C 21.660156 -21.015625 22.585938 -19.484375 23.328125 -17.765625 C 24.078125 -16.046875 24.453125 -14.023438 24.453125 -11.703125 C 24.453125 -7.753906 23.488281 -4.722656 21.5625 -2.609375 C 19.632812 -0.492188 16.789062 0.5625 13.03125 0.5625 C 9.269531 0.5625 6.425781 -0.492188 4.5 -2.609375 C 2.570312 -4.722656 1.609375 -7.753906 1.609375 -11.703125 L 1.609375 -14.703125 L 8.84375 -14.703125 L 8.84375 -11.21875 C 8.84375 -9.445312 9.203125 -8.210938 9.921875 -7.515625 C 10.648438 -6.828125 11.613281 -6.484375 12.8125 -6.484375 C 14.019531 -6.484375 14.984375 -6.828125 15.703125 -7.515625 C 16.429688 -8.210938 16.796875 -9.445312 16.796875 -11.21875 C 16.796875 -12.882812 16.421875 -14.359375 15.671875 -15.640625 C 14.929688 -16.921875 14.003906 -18.128906 12.890625 -19.265625 C 11.773438 -20.398438 10.578125 -21.535156 9.296875 -22.671875 C 8.023438 -23.816406 6.832031 -25.0625 5.71875 -26.40625 C 4.601562 -27.75 3.671875 -29.28125 2.921875 -31 C 2.179688 -32.71875 1.8125 -34.738281 1.8125 -37.0625 Z M 1.8125 -37.0625 "/></g></g></g><g fill="#737373" fill-opacity="1"><g transform="translate(55.851803, 53.114038)"><g><path d="M 10.453125 -28.21875 L 20.96875 -28.21875 L 20.96875 -21.25 L 10.453125 -21.25 L 10.453125 -6.96875 L 23.6875 -6.96875 L 23.6875 0 L 2.78125 0 L 2.78125 -48.765625 L 23.6875 -48.765625 L 23.6875 -41.796875 L 10.453125 -41.796875 Z M 10.453125 -28.21875 "/></g></g></g><g fill="#737373" fill-opacity="1"><g transform="translate(109.369822, 53.114038)"><g><path d="M 27.59375 0 L 19.859375 0 L 18.53125 -8.84375 L 9.125 -8.84375 L 7.796875 0 L 0.765625 0 L 8.5625 -48.765625 L 19.78125 -48.765625 Z M 10.109375 -15.46875 L 17.484375 -15.46875 L 13.796875 -40.125 Z M 10.109375 -15.46875 "/></g></g></g><g fill="#737373" fill-opacity="1"><g transform="translate(165.604532, 53.114038)"><g><path d="M 18.8125 0 C 18.71875 -0.320312 18.625 -0.625 18.53125 -0.90625 C 18.4375 -1.1875 18.351562 -1.535156 18.28125 -1.953125 C 18.21875 -2.367188 18.171875 -2.898438 18.140625 -3.546875 C 18.117188 -4.203125 18.109375 -5.015625 18.109375 -5.984375 L 18.109375 -13.65625 C 18.109375 -15.925781 17.710938 -17.523438 16.921875 -18.453125 C 16.140625 -19.390625 14.863281 -19.859375 13.09375 -19.859375 L 10.453125 -19.859375 L 10.453125 0 L 2.78125 0 L 2.78125 -48.765625 L 14.359375 -48.765625 C 18.347656 -48.765625 21.234375 -47.835938 23.015625 -45.984375 C 24.804688 -44.128906 25.703125 -41.316406 25.703125 -37.546875 L 25.703125 -33.71875 C 25.703125 -28.707031 24.03125 -25.410156 20.6875 -23.828125 C 22.644531 -23.035156 23.984375 -21.742188 24.703125 -19.953125 C 25.421875 -18.171875 25.78125 -16.003906 25.78125 -13.453125 L 25.78125 -5.921875 C 25.78125 -4.710938 25.828125 -3.65625 25.921875 -2.75 C 26.015625 -1.84375 26.242188 -0.925781 26.609375 0 Z M 10.453125 -41.796875 L 10.453125 -26.828125 L 13.453125 -26.828125 C 14.890625 -26.828125 16.015625 -27.195312 16.828125 -27.9375 C 17.640625 -28.675781 18.046875 -30.023438 18.046875 -31.984375 L 18.046875 -36.78125 C 18.046875 -38.550781 17.726562 -39.828125 17.09375 -40.609375 C 16.46875 -41.398438 15.484375 -41.796875 14.140625 -41.796875 Z M 10.453125 -41.796875 "/></g></g></g><g fill="#737373" fill-opacity="1"><g transform="translate(221.490916, 53.114038)"><g><path d="M 25.015625 -18.1875 L 25.015625 -11.703125 C 25.015625 -7.753906 24.050781 -4.722656 22.125 -2.609375 C 20.195312 -0.492188 17.351562 0.5625 13.59375 0.5625 C 9.820312 0.5625 6.972656 -0.492188 5.046875 -2.609375 C 3.117188 -4.722656 2.15625 -7.753906 2.15625 -11.703125 L 2.15625 -37.0625 C 2.15625 -41.007812 3.117188 -44.039062 5.046875 -46.15625 C 6.972656 -48.269531 9.820312 -49.328125 13.59375 -49.328125 C 17.351562 -49.328125 20.195312 -48.269531 22.125 -46.15625 C 24.050781 -44.039062 25.015625 -41.007812 25.015625 -37.0625 L 25.015625 -32.328125 L 17.765625 -32.328125 L 17.765625 -37.546875 C 17.765625 -39.316406 17.40625 -40.5625 16.6875 -41.28125 C 15.96875 -42 15.003906 -42.359375 13.796875 -42.359375 C 12.585938 -42.359375 11.625 -42 10.90625 -41.28125 C 10.1875 -40.5625 9.828125 -39.316406 9.828125 -37.546875 L 9.828125 -11.21875 C 9.828125 -9.445312 10.1875 -8.210938 10.90625 -7.515625 C 11.625 -6.828125 12.585938 -6.484375 13.796875 -6.484375 C 15.003906 -6.484375 15.96875 -6.828125 16.6875 -7.515625 C 17.40625 -8.210938 17.765625 -9.445312 17.765625 -11.21875 L 17.765625 -18.1875 Z M 25.015625 -18.1875 "/></g></g></g><g fill="#737373" fill-opacity="1"><g transform="translate(276.262776, 53.114038)"><g><path d="M 10.453125 0 L 2.78125 0 L 2.78125 -48.765625 L 10.453125 -48.765625 L 10.453125 -27.875 L 19.15625 -27.875 L 19.15625 -48.765625 L 26.96875 -48.765625 L 26.96875 0 L 19.15625 0 L 19.15625 -20.90625 L 10.453125 -20.90625 Z M 10.453125 0 "/></g></g></g></g></g></svg>