<svg xmlns="http://www.w3.org/2000/svg" xmlns:xlink="http://www.w3.org/1999/xlink" width="2000" zoomAndPan="magnify" viewBox="0 0 1500 1499.999933" height="2000" preserveAspectRatio="xMidYMid meet" version="1.0"><defs><g/><clipPath id="7635e8bd30"><path d="M 738 416 L 926 416 L 926 760.578125 L 738 760.578125 Z M 738 416 " clip-rule="nonzero"/></clipPath><clipPath id="52dd44825b"><path d="M 500 346.578125 L 999 346.578125 L 999 726 L 500 726 Z M 500 346.578125 " clip-rule="nonzero"/></clipPath><clipPath id="b42532729a"><rect x="0" width="1186" y="0" height="323"/></clipPath><clipPath id="028ec40dd9"><rect x="0" width="534" y="0" height="88"/></clipPath></defs><g clip-path="url(#7635e8bd30)"><path fill="#ffffff" d="M 851.417969 635.625 L 851.417969 601.691406 C 893.9375 592.71875 925.53125 555.269531 925.53125 510.023438 C 925.53125 458.140625 883.792969 416.402344 831.914062 416.402344 C 780.035156 416.402344 738.296875 458.53125 738.296875 510.410156 C 738.296875 555.269531 769.890625 593.109375 812.410156 602.078125 L 812.410156 636.015625 C 805.78125 637.578125 800.707031 643.816406 800.707031 651.230469 L 800.707031 744.847656 C 800.707031 753.429688 807.730469 760.449219 816.3125 760.449219 L 847.519531 760.449219 C 856.097656 760.449219 863.121094 753.429688 863.121094 744.847656 L 863.121094 650.839844 C 863.121094 643.429688 858.050781 637.578125 851.417969 635.625 Z M 753.898438 510.410156 C 753.898438 467.503906 789.007812 432.394531 831.914062 432.394531 C 874.824219 432.394531 909.929688 467.503906 909.929688 510.410156 C 909.929688 553.320312 874.824219 588.425781 831.914062 588.425781 C 789.007812 588.425781 753.898438 553.320312 753.898438 510.410156 Z M 835.816406 604.03125 L 835.816406 635.234375 L 828.015625 635.234375 L 828.015625 604.03125 Z M 847.519531 744.457031 L 816.3125 744.457031 L 816.3125 650.839844 L 847.519531 650.839844 Z M 847.519531 744.457031 " fill-opacity="1" fill-rule="nonzero"/></g><path fill="#ffffff" d="M 889.257812 485.835938 C 851.027344 486.617188 815.140625 494.417969 784.324219 508.851562 C 783.15625 509.242188 781.984375 509.632812 781.203125 509.632812 C 778.085938 509.632812 775.355469 508.070312 774.183594 504.949219 C 772.234375 501.050781 774.183594 496.367188 778.085938 494.417969 C 808.121094 480.375 843.226562 472.574219 879.894531 470.625 C 872.09375 461.261719 861.558594 454.242188 849.078125 450.730469 C 826.0625 454.628906 804.21875 460.871094 784.714844 469.84375 C 775.355469 480.375 769.503906 494.808594 769.503906 510.410156 C 769.503906 519.382812 771.453125 527.964844 774.964844 535.765625 C 775.742188 534.597656 776.523438 533.816406 777.695312 533.425781 C 811.628906 517.824219 851.808594 509.242188 893.9375 508.851562 C 893.9375 501.050781 892.375 492.859375 889.257812 485.835938 Z M 889.257812 485.835938 " fill-opacity="1" fill-rule="nonzero"/><g clip-path="url(#52dd44825b)"><path fill="#ffffff" d="M 982.875 358.671875 C 955.957031 350.871094 927.09375 346.578125 897.058594 346.578125 C 841.277344 346.578125 787.835938 361.011719 749.609375 386.757812 C 711.769531 361.011719 658.722656 346.578125 602.941406 346.578125 C 572.902344 346.578125 544.039062 350.480469 517.121094 358.671875 C 507.371094 361.402344 500.351562 370.765625 500.351562 380.90625 L 500.351562 675.414062 C 500.351562 682.824219 503.46875 689.457031 509.320312 693.746094 C 515.171875 698.039062 522.195312 699.988281 529.214844 698.039062 C 552.621094 692.578125 577.195312 689.457031 602.550781 689.457031 C 654.039062 689.457031 702.019531 701.160156 737.90625 722.222656 C 741.417969 724.5625 745.707031 725.34375 749.609375 725.34375 C 753.507812 725.34375 757.800781 724.171875 761.3125 722.222656 C 768.722656 717.933594 776.523438 714.03125 784.714844 710.519531 L 784.714844 664.492188 C 784.324219 664.492188 784.324219 664.492188 783.933594 664.882812 C 782.765625 665.273438 781.59375 665.664062 780.816406 665.664062 C 777.695312 665.664062 774.964844 664.101562 773.792969 660.980469 C 771.84375 657.082031 773.792969 652.398438 777.695312 650.449219 C 780.035156 649.277344 782.765625 648.5 785.105469 647.328125 C 785.886719 639.136719 790.175781 631.335938 796.808594 626.265625 L 796.808594 620.414062 C 792.515625 621.972656 788.617188 623.925781 784.324219 625.484375 C 783.15625 625.875 781.984375 626.265625 781.203125 626.265625 C 778.085938 626.265625 775.355469 624.703125 774.183594 621.582031 C 772.234375 617.683594 774.183594 613 778.085938 611.050781 C 780.425781 609.882812 782.375 609.101562 784.714844 608.320312 C 747.65625 590.765625 722.691406 552.929688 722.691406 510.410156 C 722.691406 509.632812 722.691406 508.851562 722.691406 508.460938 C 721.523438 509.242188 719.960938 509.632812 718.792969 509.632812 C 717.621094 509.632812 716.453125 509.242188 715.671875 508.851562 C 682.90625 493.636719 643.898438 485.835938 602.941406 485.835938 C 581.875 485.835938 560.8125 488.175781 541.308594 492.078125 C 537.015625 492.859375 533.117188 490.128906 531.945312 486.226562 C 531.164062 481.9375 533.894531 478.035156 537.796875 476.863281 C 558.472656 472.574219 580.707031 470.234375 602.941406 470.234375 C 646.238281 470.234375 687.585938 478.816406 722.304688 494.808594 C 723.082031 495.199219 723.472656 495.589844 723.863281 495.980469 C 730.496094 446.828125 769.503906 408.210938 818.652344 401.96875 C 843.226562 395.339844 869.753906 391.828125 897.449219 391.828125 C 919.683594 391.828125 941.527344 394.167969 962.589844 398.460938 C 966.882812 399.238281 969.613281 403.53125 968.441406 407.820312 C 967.269531 412.113281 963.371094 414.84375 959.078125 413.671875 C 939.1875 409.382812 918.511719 407.429688 897.449219 407.429688 C 888.867188 407.429688 880.285156 407.820312 872.09375 408.601562 C 885.355469 413.671875 897.058594 421.472656 907.199219 431.226562 C 925.921875 431.617188 944.648438 433.957031 962.199219 437.859375 C 966.492188 438.636719 969.222656 442.929688 968.050781 447.21875 C 967.269531 451.511719 962.980469 454.242188 958.691406 453.070312 C 946.597656 450.339844 933.722656 448.78125 920.851562 447.609375 C 933.722656 465.554688 941.136719 487.007812 941.136719 510.410156 C 941.136719 511.191406 941.136719 511.582031 941.136719 512.363281 C 948.15625 513.53125 955.570312 514.703125 962.199219 515.871094 C 966.492188 516.652344 969.222656 520.945312 968.050781 525.234375 C 966.882812 529.527344 962.980469 532.257812 958.691406 531.085938 C 952.449219 529.914062 945.816406 528.746094 939.574219 527.574219 C 938.40625 535.765625 936.066406 543.566406 932.945312 550.980469 C 932.945312 550.589844 933.335938 550.199219 933.335938 549.808594 C 943.085938 550.980469 952.839844 552.539062 962.199219 554.492188 C 966.492188 555.269531 969.222656 559.5625 968.050781 563.851562 C 966.882812 568.144531 962.980469 570.875 958.691406 569.703125 C 948.15625 567.363281 937.234375 565.800781 925.921875 564.632812 C 921.242188 572.824219 915.390625 580.234375 908.757812 586.867188 C 926.703125 587.648438 944.648438 589.597656 961.808594 593.109375 C 966.101562 593.886719 968.832031 598.179688 967.660156 602.46875 C 966.492188 606.761719 962.589844 609.492188 958.300781 608.320312 C 938.40625 604.03125 917.730469 602.078125 896.667969 602.078125 C 894.328125 602.078125 891.597656 602.078125 889.253906 602.078125 C 882.234375 606.761719 874.433594 610.269531 866.242188 613 L 866.242188 625.875 C 866.632812 626.265625 867.019531 626.65625 867.410156 627.042969 C 877.164062 626.265625 886.914062 625.875 896.667969 625.875 C 918.902344 625.875 940.746094 628.214844 961.808594 632.503906 C 966.101562 633.285156 968.832031 637.578125 967.660156 641.867188 C 966.492188 646.160156 962.589844 648.890625 958.300781 647.71875 C 938.40625 643.429688 917.730469 641.476562 896.667969 641.476562 C 890.035156 641.476562 883.40625 641.867188 876.773438 642.257812 C 877.554688 644.988281 877.945312 647.71875 877.945312 650.839844 L 877.945312 690.238281 C 884.183594 689.847656 890.425781 689.847656 896.667969 689.847656 C 922.023438 689.847656 946.988281 692.578125 970 698.429688 C 977.023438 699.988281 984.433594 698.429688 989.894531 694.136719 C 995.746094 689.847656 998.867188 682.824219 998.867188 675.804688 L 998.867188 380.90625 C 999.648438 370.765625 992.625 361.402344 982.875 358.671875 Z M 725.8125 660.980469 C 724.644531 663.710938 721.523438 665.664062 718.792969 665.664062 C 717.621094 665.664062 716.453125 665.273438 715.671875 664.882812 C 682.90625 649.667969 643.898438 641.867188 602.941406 641.867188 C 581.875 641.867188 560.8125 644.207031 541.308594 648.109375 C 537.015625 648.890625 533.117188 646.160156 531.945312 642.257812 C 531.164062 637.964844 533.894531 634.066406 537.796875 632.894531 C 558.472656 628.605469 580.707031 626.265625 602.941406 626.265625 C 646.238281 626.265625 687.585938 634.847656 722.304688 650.839844 C 725.8125 652.398438 727.765625 657.082031 725.8125 660.980469 Z M 725.8125 621.972656 C 724.644531 624.703125 721.523438 626.65625 718.792969 626.65625 C 717.621094 626.65625 716.453125 626.265625 715.671875 625.875 C 682.90625 610.660156 643.898438 602.859375 602.941406 602.859375 C 581.875 602.859375 560.8125 605.199219 541.308594 609.101562 C 537.015625 609.882812 533.117188 607.152344 531.945312 603.25 C 531.164062 598.960938 533.894531 595.058594 537.796875 593.886719 C 558.472656 589.597656 580.707031 587.257812 602.941406 587.257812 C 646.238281 587.257812 687.585938 595.839844 722.304688 611.832031 C 725.8125 613.390625 727.765625 618.074219 725.8125 621.972656 Z M 725.8125 582.964844 C 724.644531 585.695312 721.523438 587.648438 718.792969 587.648438 C 717.621094 587.648438 716.453125 587.257812 715.671875 586.867188 C 682.90625 571.652344 643.898438 563.851562 602.941406 563.851562 C 581.875 563.851562 560.8125 566.191406 541.308594 570.09375 C 537.015625 570.875 533.117188 568.144531 531.945312 564.242188 C 531.164062 559.953125 533.894531 556.050781 537.796875 554.878906 C 558.472656 550.589844 580.707031 548.25 602.941406 548.25 C 646.238281 548.25 687.585938 556.832031 722.304688 572.824219 C 725.8125 574.382812 727.765625 579.066406 725.8125 582.964844 Z M 537.796875 515.871094 C 558.472656 511.582031 580.707031 509.242188 602.941406 509.242188 C 646.238281 509.242188 687.585938 517.824219 722.304688 533.816406 C 726.203125 535.765625 727.765625 540.449219 726.203125 544.347656 C 725.035156 547.078125 721.914062 549.03125 719.183594 549.03125 C 718.011719 549.03125 716.84375 548.640625 716.0625 548.25 C 683.296875 533.035156 644.289062 525.234375 603.328125 525.234375 C 582.265625 525.234375 561.203125 527.574219 541.699219 531.476562 C 537.40625 532.257812 533.507812 529.527344 532.335938 525.625 C 530.777344 520.945312 533.507812 516.652344 537.796875 515.871094 Z M 725.8125 465.941406 C 724.644531 468.671875 721.523438 470.625 718.792969 470.625 C 717.621094 470.625 716.453125 470.234375 715.671875 469.84375 C 682.90625 454.628906 643.898438 446.828125 602.941406 446.828125 C 581.875 446.828125 560.8125 449.167969 541.308594 453.070312 C 537.015625 453.851562 533.117188 451.121094 531.945312 447.21875 C 531.164062 442.929688 533.894531 439.027344 537.796875 437.859375 C 558.472656 433.566406 580.707031 431.226562 602.941406 431.226562 C 646.238281 431.226562 687.585938 439.808594 722.304688 455.800781 C 725.8125 457.363281 727.765625 462.042969 725.8125 465.941406 Z M 725.8125 426.933594 C 724.644531 429.664062 721.523438 431.617188 718.792969 431.617188 C 717.621094 431.617188 716.453125 431.226562 715.671875 430.835938 C 682.90625 415.625 643.898438 407.820312 602.941406 407.820312 C 581.875 407.820312 560.8125 410.160156 541.308594 414.0625 C 537.015625 414.84375 533.117188 412.113281 531.945312 408.210938 C 531.164062 403.921875 533.894531 400.019531 537.796875 398.851562 C 558.472656 394.558594 580.707031 392.21875 602.941406 392.21875 C 646.238281 392.21875 687.585938 400.800781 722.304688 416.792969 C 725.8125 418.355469 727.765625 423.035156 725.8125 426.933594 Z M 725.8125 426.933594 " fill-opacity="1" fill-rule="nonzero"/></g><path fill="#ffffff" d="M 892.765625 524.84375 C 853.367188 525.234375 815.921875 533.425781 784.714844 547.859375 C 783.933594 548.25 783.546875 548.25 782.765625 548.640625 C 787.445312 554.878906 793.296875 559.953125 800.320312 564.242188 C 825.285156 555.660156 852.980469 550.199219 881.84375 549.03125 C 886.523438 541.617188 890.425781 533.425781 892.765625 524.84375 Z M 892.765625 524.84375 " fill-opacity="1" fill-rule="nonzero"/><g transform="matrix(1, 0, 0, 1, 156, 740)"><g clip-path="url(#b42532729a)"><g fill="#ffffff" fill-opacity="1"><g transform="translate(2.467988, 255.210988)"><g><path d="M 66.953125 -141.59375 C 71.441406 -141.59375 75.441406 -140.394531 78.953125 -138 C 82.472656 -135.4375 84.957031 -132.15625 86.40625 -128.15625 L 127.921875 -16.5625 C 128.398438 -15.125 128.640625 -13.601562 128.640625 -12 C 128.640625 -8.632812 127.519531 -5.832031 125.28125 -3.59375 C 122.882812 -1.195312 120.003906 0 116.640625 0 C 111.203125 0 107.441406 -2.398438 105.359375 -7.203125 L 96 -32.15625 L 38.640625 -32.15625 L 29.28125 -7.203125 C 27.195312 -2.398438 23.4375 0 18 0 C 14.632812 0 11.832031 -1.195312 9.59375 -3.59375 C 7.195312 -5.832031 6 -8.632812 6 -12 C 6 -13.601562 6.238281 -15.125 6.71875 -16.5625 L 48.234375 -128.15625 C 49.679688 -132 52.164062 -135.203125 55.6875 -137.765625 C 59.039062 -140.316406 62.796875 -141.59375 66.953125 -141.59375 Z M 47.046875 -54.71875 L 87.59375 -54.71875 L 67.203125 -109.203125 Z M 47.046875 -54.71875 "/></g></g></g><g fill="#ffffff" fill-opacity="1"><g transform="translate(134.707778, 255.210988)"><g><path d="M 92.40625 -116.640625 C 82.476562 -118.398438 73.835938 -119.28125 66.484375 -119.28125 C 62.003906 -119.28125 58.320312 -119.203125 55.4375 -119.046875 C 52.394531 -118.722656 48.957031 -118.082031 45.125 -117.125 C 41.125 -116.164062 38.082031 -114.5625 36 -112.3125 C 33.914062 -109.914062 32.875 -106.878906 32.875 -103.203125 C 32.875 -99.203125 35.753906 -95.601562 41.515625 -92.40625 C 47.273438 -89.039062 54.316406 -86 62.640625 -83.28125 C 70.796875 -80.394531 79.035156 -77.273438 87.359375 -73.921875 C 95.679688 -70.398438 102.722656 -65.679688 108.484375 -59.765625 C 114.242188 -53.679688 117.125 -46.640625 117.125 -38.640625 C 117.125 -25.203125 112.242188 -15.203125 102.484375 -8.640625 C 92.722656 -1.921875 79.519531 1.4375 62.875 1.4375 C 47.039062 1.4375 32.644531 -1.519531 19.6875 -7.4375 C 15.84375 -9.351562 13.921875 -12.632812 13.921875 -17.28125 C 13.921875 -20.15625 14.960938 -22.632812 17.046875 -24.71875 C 18.960938 -26.800781 21.28125 -27.84375 24 -27.84375 C 24.632812 -27.84375 25.59375 -27.679688 26.875 -27.359375 C 37.4375 -23.835938 47.4375 -22.078125 56.875 -22.078125 C 80.71875 -22.078125 92.640625 -27.519531 92.640625 -38.40625 C 92.640625 -42.40625 89.757812 -46.003906 84 -49.203125 C 78.238281 -52.398438 71.28125 -55.359375 63.125 -58.078125 C 54.800781 -60.796875 46.476562 -63.835938 38.15625 -67.203125 C 29.84375 -70.398438 22.804688 -74.957031 17.046875 -80.875 C 11.285156 -86.800781 8.40625 -93.679688 8.40625 -101.515625 C 8.40625 -109.835938 9.921875 -116.878906 12.953125 -122.640625 C 15.992188 -128.398438 20.316406 -132.71875 25.921875 -135.59375 C 31.515625 -138.320312 37.351562 -140.242188 43.4375 -141.359375 C 49.351562 -142.316406 56.3125 -142.796875 64.3125 -142.796875 C 77.4375 -142.796875 87.679688 -141.835938 95.046875 -139.921875 C 97.597656 -139.117188 99.835938 -137.675781 101.765625 -135.59375 C 103.523438 -133.519531 104.40625 -131.125 104.40625 -128.40625 C 104.40625 -125.039062 103.285156 -122.238281 101.046875 -120 C 98.640625 -117.757812 95.757812 -116.640625 92.40625 -116.640625 Z M 92.40625 -116.640625 "/></g></g></g><g fill="#ffffff" fill-opacity="1"><g transform="translate(257.827543, 255.210988)"><g><path d="M 95.28125 -135.84375 C 97.519531 -139.675781 100.957031 -141.59375 105.59375 -141.59375 C 109.113281 -141.59375 112.078125 -140.472656 114.484375 -138.234375 C 116.722656 -135.835938 117.84375 -132.878906 117.84375 -129.359375 C 117.84375 -127.117188 117.363281 -125.039062 116.40625 -123.125 L 72.953125 -47.765625 L 72.953125 -12.234375 C 72.953125 -8.878906 71.753906 -6 69.359375 -3.59375 C 66.960938 -1.195312 64.082031 0 60.71875 0 C 57.363281 0 54.484375 -1.195312 52.078125 -3.59375 C 49.679688 -6 48.484375 -8.878906 48.484375 -12.234375 L 48.484375 -47.765625 L 5.046875 -123.125 C 4.078125 -125.039062 3.59375 -127.117188 3.59375 -129.359375 C 3.59375 -132.878906 4.796875 -135.835938 7.203125 -138.234375 C 9.441406 -140.472656 12.320312 -141.59375 15.84375 -141.59375 C 20.476562 -141.59375 23.914062 -139.675781 26.15625 -135.84375 L 60.484375 -76.078125 Z M 95.28125 -135.84375 "/></g></g></g><g fill="#ffffff" fill-opacity="1"><g transform="translate(376.867315, 255.210988)"><g><path d="M 81.125 -30.484375 C 75.039062 -30.484375 70.238281 -33.039062 66.71875 -38.15625 L 38.875 -81.84375 L 38.875 -12.234375 C 38.875 -8.878906 37.675781 -6 35.28125 -3.59375 C 32.882812 -1.195312 30.003906 0 26.640625 0 C 23.273438 0 20.394531 -1.195312 18 -3.59375 C 15.601562 -6 14.40625 -8.878906 14.40625 -12.234375 L 14.40625 -131.046875 C 14.40625 -133.921875 15.441406 -136.398438 17.515625 -138.484375 C 19.597656 -140.554688 22.078125 -141.59375 24.953125 -141.59375 C 28.640625 -141.59375 31.601562 -140.078125 33.84375 -137.046875 L 81.125 -60.71875 L 128.40625 -137.046875 C 130.644531 -140.078125 133.601562 -141.59375 137.28125 -141.59375 C 140.15625 -141.59375 142.632812 -140.554688 144.71875 -138.484375 C 146.800781 -136.398438 147.84375 -133.921875 147.84375 -131.046875 L 147.84375 -12.234375 C 147.84375 -8.878906 146.640625 -6 144.234375 -3.59375 C 141.835938 -1.195312 138.957031 0 135.59375 0 C 132.238281 0 129.359375 -1.195312 126.953125 -3.59375 C 124.554688 -6 123.359375 -8.878906 123.359375 -12.234375 L 123.359375 -81.84375 L 95.515625 -38.15625 C 91.992188 -33.039062 87.195312 -30.484375 81.125 -30.484375 Z M 81.125 -30.484375 "/></g></g></g><g fill="#ffffff" fill-opacity="1"><g transform="translate(536.707046, 255.210988)"><g><path d="M 37.6875 -12.234375 C 37.6875 -8.878906 36.484375 -6 34.078125 -3.59375 C 31.679688 -1.195312 28.800781 0 25.4375 0 C 22.082031 0 19.203125 -1.195312 16.796875 -3.59375 C 14.398438 -6 13.203125 -8.878906 13.203125 -12.234375 L 13.203125 -129.359375 C 13.203125 -132.722656 14.398438 -135.601562 16.796875 -138 C 19.203125 -140.394531 22.082031 -141.59375 25.4375 -141.59375 L 78.953125 -141.59375 C 86.160156 -141.59375 93.039062 -140.078125 99.59375 -137.046875 C 106 -134.003906 111.601562 -128.800781 116.40625 -121.4375 C 121.195312 -113.914062 123.59375 -104.875 123.59375 -94.3125 C 123.59375 -84.875 122.316406 -76.71875 119.765625 -69.84375 C 117.046875 -62.957031 113.441406 -57.753906 108.953125 -54.234375 C 104.472656 -50.710938 99.835938 -48.234375 95.046875 -46.796875 C 90.242188 -45.203125 85.125 -44.40625 79.6875 -44.40625 L 37.6875 -44.40625 Z M 37.6875 -118.5625 L 37.6875 -67.4375 L 78.71875 -67.4375 C 92.476562 -67.4375 99.359375 -76.394531 99.359375 -94.3125 C 99.359375 -103.113281 97.4375 -109.359375 93.59375 -113.046875 C 89.59375 -116.722656 84.632812 -118.5625 78.71875 -118.5625 Z M 37.6875 -118.5625 "/></g></g></g><g fill="#ffffff" fill-opacity="1"><g transform="translate(663.906799, 255.210988)"><g><path d="M 50.15625 -118.078125 L 20.15625 -118.078125 C 16.957031 -118.078125 14.238281 -119.28125 12 -121.6875 C 9.601562 -123.925781 8.40625 -126.644531 8.40625 -129.84375 C 8.40625 -133.039062 9.601562 -135.835938 12 -138.234375 C 14.238281 -140.472656 16.957031 -141.59375 20.15625 -141.59375 L 104.640625 -141.59375 C 107.835938 -141.59375 110.640625 -140.472656 113.046875 -138.234375 C 115.285156 -135.835938 116.40625 -133.039062 116.40625 -129.84375 C 116.40625 -126.644531 115.285156 -123.925781 113.046875 -121.6875 C 110.640625 -119.28125 107.835938 -118.078125 104.640625 -118.078125 L 74.640625 -118.078125 L 74.640625 -12.234375 C 74.640625 -8.878906 73.441406 -6 71.046875 -3.59375 C 68.640625 -1.195312 65.757812 0 62.40625 0 C 59.039062 0 56.160156 -1.195312 53.765625 -3.59375 C 51.359375 -6 50.15625 -8.878906 50.15625 -12.234375 Z M 50.15625 -118.078125 "/></g></g></g><g fill="#ffffff" fill-opacity="1"><g transform="translate(786.306556, 255.210988)"><g><path d="M 78.71875 1.4375 C 72.957031 1.4375 67.28125 0.796875 61.6875 -0.484375 C 55.925781 -1.597656 49.925781 -3.914062 43.6875 -7.4375 C 37.4375 -10.800781 31.992188 -15.203125 27.359375 -20.640625 C 22.554688 -25.921875 18.632812 -33.117188 15.59375 -42.234375 C 12.394531 -51.203125 10.796875 -61.523438 10.796875 -73.203125 C 10.796875 -85.523438 12.878906 -96.320312 17.046875 -105.59375 C 21.046875 -114.875 26.484375 -122.15625 33.359375 -127.4375 C 40.078125 -132.5625 47.273438 -136.398438 54.953125 -138.953125 C 62.640625 -141.515625 70.5625 -142.796875 78.71875 -142.796875 C 86.875 -142.796875 94.796875 -141.515625 102.484375 -138.953125 C 110.160156 -136.398438 117.4375 -132.5625 124.3125 -127.4375 C 131.039062 -122.15625 136.484375 -114.875 140.640625 -105.59375 C 144.640625 -96.320312 146.640625 -85.523438 146.640625 -73.203125 C 146.640625 -61.523438 145.117188 -51.203125 142.078125 -42.234375 C 138.878906 -33.117188 134.957031 -25.921875 130.3125 -20.640625 C 125.519531 -15.203125 120.003906 -10.800781 113.765625 -7.4375 C 107.523438 -3.914062 101.601562 -1.597656 96 -0.484375 C 90.238281 0.796875 84.476562 1.4375 78.71875 1.4375 Z M 78.71875 -22.078125 C 83.84375 -22.078125 88.5625 -22.71875 92.875 -24 C 97.195312 -25.125 101.757812 -27.363281 106.5625 -30.71875 C 111.363281 -33.914062 115.203125 -39.113281 118.078125 -46.3125 C 120.796875 -53.351562 122.15625 -62.078125 122.15625 -72.484375 C 122.15625 -103.679688 107.675781 -119.28125 78.71875 -119.28125 C 49.757812 -119.28125 35.28125 -103.679688 35.28125 -72.484375 C 35.28125 -62.078125 36.71875 -53.351562 39.59375 -46.3125 C 42.320312 -39.113281 46.082031 -33.914062 50.875 -30.71875 C 55.675781 -27.363281 60.238281 -25.125 64.5625 -24 C 68.882812 -22.71875 73.601562 -22.078125 78.71875 -22.078125 Z M 78.71875 -22.078125 "/></g></g></g><g fill="#ffffff" fill-opacity="1"><g transform="translate(941.346291, 255.210988)"><g><path d="M 50.15625 -118.078125 L 20.15625 -118.078125 C 16.957031 -118.078125 14.238281 -119.28125 12 -121.6875 C 9.601562 -123.925781 8.40625 -126.644531 8.40625 -129.84375 C 8.40625 -133.039062 9.601562 -135.835938 12 -138.234375 C 14.238281 -140.472656 16.957031 -141.59375 20.15625 -141.59375 L 104.640625 -141.59375 C 107.835938 -141.59375 110.640625 -140.472656 113.046875 -138.234375 C 115.285156 -135.835938 116.40625 -133.039062 116.40625 -129.84375 C 116.40625 -126.644531 115.285156 -123.925781 113.046875 -121.6875 C 110.640625 -119.28125 107.835938 -118.078125 104.640625 -118.078125 L 74.640625 -118.078125 L 74.640625 -12.234375 C 74.640625 -8.878906 73.441406 -6 71.046875 -3.59375 C 68.640625 -1.195312 65.757812 0 62.40625 0 C 59.039062 0 56.160156 -1.195312 53.765625 -3.59375 C 51.359375 -6 50.15625 -8.878906 50.15625 -12.234375 Z M 50.15625 -118.078125 "/></g></g></g><g fill="#ffffff" fill-opacity="1"><g transform="translate(1063.746048, 255.210988)"><g><path d="M 14.40625 -130.078125 C 14.40625 -133.273438 15.523438 -135.992188 17.765625 -138.234375 C 20.003906 -140.472656 22.722656 -141.59375 25.921875 -141.59375 L 98.15625 -141.59375 C 101.195312 -141.59375 103.914062 -140.472656 106.3125 -138.234375 C 108.5625 -135.992188 109.6875 -133.273438 109.6875 -130.078125 C 109.6875 -126.878906 108.5625 -124.160156 106.3125 -121.921875 C 103.914062 -119.679688 101.195312 -118.5625 98.15625 -118.5625 L 38.875 -118.5625 L 38.875 -79.6875 L 85.203125 -79.6875 C 88.242188 -79.6875 90.960938 -78.5625 93.359375 -76.3125 C 95.597656 -74.070312 96.71875 -71.351562 96.71875 -68.15625 C 96.71875 -64.957031 95.597656 -62.238281 93.359375 -60 C 90.960938 -57.757812 88.242188 -56.640625 85.203125 -56.640625 L 38.875 -56.640625 L 38.875 -23.046875 L 98.15625 -23.046875 C 101.195312 -23.046875 103.914062 -21.925781 106.3125 -19.6875 C 108.5625 -17.4375 109.6875 -14.710938 109.6875 -11.515625 C 109.6875 -8.316406 108.5625 -5.597656 106.3125 -3.359375 C 103.914062 -1.117188 101.195312 0 98.15625 0 L 25.921875 0 C 22.722656 0 20.003906 -1.117188 17.765625 -3.359375 C 15.523438 -5.597656 14.40625 -8.316406 14.40625 -11.515625 Z M 14.40625 -130.078125 "/></g></g></g></g></g><g transform="matrix(1, 0, 0, 1, 509, 1069)"><g clip-path="url(#028ec40dd9)"><g fill="#ffffff" fill-opacity="1"><g transform="translate(4.382746, 68.420234)"><g><path d="M 25.015625 -31.578125 C 22.328125 -32.054688 19.988281 -32.296875 18 -32.296875 C 16.789062 -32.296875 15.796875 -32.273438 15.015625 -32.234375 C 14.191406 -32.148438 13.257812 -31.976562 12.21875 -31.71875 C 11.132812 -31.457031 10.3125 -31.019531 9.75 -30.40625 C 9.1875 -29.757812 8.90625 -28.9375 8.90625 -27.9375 C 8.90625 -26.851562 9.6875 -25.878906 11.25 -25.015625 C 12.800781 -24.109375 14.703125 -23.285156 16.953125 -22.546875 C 19.171875 -21.765625 21.40625 -20.921875 23.65625 -20.015625 C 25.90625 -19.054688 27.8125 -17.78125 29.375 -16.1875 C 30.9375 -14.539062 31.71875 -12.632812 31.71875 -10.46875 C 31.71875 -6.820312 30.394531 -4.113281 27.75 -2.34375 C 25.101562 -0.519531 21.53125 0.390625 17.03125 0.390625 C 12.738281 0.390625 8.835938 -0.410156 5.328125 -2.015625 C 4.285156 -2.535156 3.765625 -3.421875 3.765625 -4.671875 C 3.765625 -5.453125 4.046875 -6.125 4.609375 -6.6875 C 5.128906 -7.25 5.757812 -7.53125 6.5 -7.53125 C 6.675781 -7.53125 6.9375 -7.488281 7.28125 -7.40625 C 10.132812 -6.457031 12.84375 -5.984375 15.40625 -5.984375 C 21.851562 -5.984375 25.078125 -7.453125 25.078125 -10.390625 C 25.078125 -11.472656 24.300781 -12.453125 22.75 -13.328125 C 21.1875 -14.191406 19.300781 -14.988281 17.09375 -15.71875 C 14.84375 -16.457031 12.585938 -17.285156 10.328125 -18.203125 C 8.078125 -19.066406 6.171875 -20.300781 4.609375 -21.90625 C 3.054688 -23.5 2.28125 -25.359375 2.28125 -27.484375 C 2.28125 -29.742188 2.691406 -31.648438 3.515625 -33.203125 C 4.335938 -34.765625 5.503906 -35.9375 7.015625 -36.71875 C 8.535156 -37.457031 10.117188 -37.976562 11.765625 -38.28125 C 13.367188 -38.539062 15.253906 -38.671875 17.421875 -38.671875 C 20.972656 -38.671875 23.742188 -38.410156 25.734375 -37.890625 C 26.429688 -37.671875 27.035156 -37.28125 27.546875 -36.71875 C 28.023438 -36.15625 28.265625 -35.503906 28.265625 -34.765625 C 28.265625 -33.859375 27.960938 -33.097656 27.359375 -32.484375 C 26.710938 -31.878906 25.929688 -31.578125 25.015625 -31.578125 Z M 25.015625 -31.578125 "/></g></g></g><g fill="#ffffff" fill-opacity="1"><g transform="translate(90.367234, 68.420234)"><g><path d="M 3.90625 -35.21875 C 3.90625 -36.082031 4.207031 -36.820312 4.8125 -37.4375 C 5.414062 -38.039062 6.148438 -38.34375 7.015625 -38.34375 L 26.578125 -38.34375 C 27.398438 -38.34375 28.132812 -38.039062 28.78125 -37.4375 C 29.394531 -36.820312 29.703125 -36.082031 29.703125 -35.21875 C 29.703125 -34.351562 29.394531 -33.617188 28.78125 -33.015625 C 28.132812 -32.410156 27.398438 -32.109375 26.578125 -32.109375 L 10.53125 -32.109375 L 10.53125 -21.578125 L 23.0625 -21.578125 C 23.882812 -21.578125 24.625 -21.273438 25.28125 -20.671875 C 25.882812 -20.054688 26.1875 -19.316406 26.1875 -18.453125 C 26.1875 -17.585938 25.882812 -16.851562 25.28125 -16.25 C 24.625 -15.644531 23.882812 -15.34375 23.0625 -15.34375 L 10.53125 -15.34375 L 10.53125 -6.234375 L 26.578125 -6.234375 C 27.398438 -6.234375 28.132812 -5.929688 28.78125 -5.328125 C 29.394531 -4.722656 29.703125 -3.988281 29.703125 -3.125 C 29.703125 -2.25 29.394531 -1.507812 28.78125 -0.90625 C 28.132812 -0.300781 27.398438 0 26.578125 0 L 7.015625 0 C 6.148438 0 5.414062 -0.300781 4.8125 -0.90625 C 4.207031 -1.507812 3.90625 -2.25 3.90625 -3.125 Z M 3.90625 -35.21875 "/></g></g></g><g fill="#ffffff" fill-opacity="1"><g transform="translate(175.312028, 68.420234)"><g><path d="M 18.125 -38.34375 C 19.34375 -38.34375 20.425781 -38.015625 21.375 -37.359375 C 22.332031 -36.671875 23.003906 -35.785156 23.390625 -34.703125 L 34.640625 -4.484375 C 34.765625 -4.097656 34.828125 -3.6875 34.828125 -3.25 C 34.828125 -2.34375 34.523438 -1.582031 33.921875 -0.96875 C 33.273438 -0.320312 32.492188 0 31.578125 0 C 30.109375 0 29.09375 -0.648438 28.53125 -1.953125 L 26 -8.703125 L 10.46875 -8.703125 L 7.921875 -1.953125 C 7.359375 -0.648438 6.34375 0 4.875 0 C 3.96875 0 3.207031 -0.320312 2.59375 -0.96875 C 1.945312 -1.582031 1.625 -2.34375 1.625 -3.25 C 1.625 -3.6875 1.6875 -4.097656 1.8125 -4.484375 L 13.0625 -34.703125 C 13.445312 -35.742188 14.117188 -36.609375 15.078125 -37.296875 C 15.984375 -37.992188 17 -38.34375 18.125 -38.34375 Z M 12.734375 -14.8125 L 23.71875 -14.8125 L 18.203125 -29.5625 Z M 12.734375 -14.8125 "/></g></g></g><g fill="#ffffff" fill-opacity="1"><g transform="translate(263.765753, 68.420234)"><g><path d="M 32.03125 -4.359375 C 32.164062 -4.003906 32.234375 -3.632812 32.234375 -3.25 C 32.234375 -2.34375 31.90625 -1.582031 31.25 -0.96875 C 30.601562 -0.320312 29.804688 0 28.859375 0 C 27.335938 0 26.316406 -0.734375 25.796875 -2.203125 L 24.234375 -6.828125 C 22.804688 -11.066406 20.726562 -13.1875 18 -13.1875 L 10.53125 -13.1875 L 10.53125 -3.3125 C 10.53125 -2.40625 10.203125 -1.625 9.546875 -0.96875 C 8.898438 -0.320312 8.125 0 7.21875 0 C 6.300781 0 5.519531 -0.320312 4.875 -0.96875 C 4.226562 -1.625 3.90625 -2.40625 3.90625 -3.3125 L 3.90625 -35.03125 C 3.90625 -35.9375 4.226562 -36.710938 4.875 -37.359375 C 5.519531 -38.015625 6.300781 -38.34375 7.21875 -38.34375 L 20.734375 -38.34375 C 22.160156 -38.34375 23.566406 -38.125 24.953125 -37.6875 C 26.296875 -37.257812 27.597656 -36.585938 28.859375 -35.671875 C 30.066406 -34.765625 31.0625 -33.488281 31.84375 -31.84375 C 32.582031 -30.195312 32.953125 -28.289062 32.953125 -26.125 C 32.953125 -25.125 32.863281 -24.128906 32.6875 -23.140625 C 32.507812 -22.097656 32.226562 -20.988281 31.84375 -19.8125 C 31.40625 -18.644531 30.734375 -17.609375 29.828125 -16.703125 C 28.921875 -15.796875 27.816406 -15.1875 26.515625 -14.875 C 27.679688 -13.789062 28.613281 -12.625 29.3125 -11.375 C 30 -10.113281 30.710938 -8.359375 31.453125 -6.109375 Z M 20.671875 -19.5 C 21.535156 -19.5 22.226562 -19.539062 22.75 -19.625 C 23.21875 -19.707031 23.78125 -19.945312 24.4375 -20.34375 C 25.082031 -20.6875 25.554688 -21.335938 25.859375 -22.296875 C 26.160156 -23.203125 26.3125 -24.410156 26.3125 -25.921875 C 26.3125 -30.046875 24.429688 -32.109375 20.671875 -32.109375 L 10.53125 -32.109375 L 10.53125 -19.5 Z M 20.671875 -19.5 "/></g></g></g><g fill="#ffffff" fill-opacity="1"><g transform="translate(351.309728, 68.420234)"><g><path d="M 21.25 0.390625 C 19.6875 0.390625 18.128906 0.21875 16.578125 -0.125 C 15.015625 -0.425781 13.34375 -1.054688 11.5625 -2.015625 C 9.789062 -2.921875 8.253906 -4.113281 6.953125 -5.59375 C 5.609375 -7.019531 4.503906 -8.96875 3.640625 -11.4375 C 2.734375 -13.863281 2.28125 -16.65625 2.28125 -19.8125 C 2.28125 -23.15625 2.863281 -26.082031 4.03125 -28.59375 C 5.15625 -31.101562 6.671875 -33.070312 8.578125 -34.5 C 10.484375 -35.894531 12.519531 -36.9375 14.6875 -37.625 C 16.8125 -38.320312 19 -38.671875 21.25 -38.671875 C 25.101562 -38.671875 28.414062 -37.847656 31.1875 -36.203125 C 32.226562 -35.628906 32.75 -34.738281 32.75 -33.53125 C 32.75 -32.707031 32.445312 -31.992188 31.84375 -31.390625 C 31.195312 -30.785156 30.460938 -30.484375 29.640625 -30.484375 C 29.203125 -30.484375 28.765625 -30.585938 28.328125 -30.796875 C 26.335938 -31.796875 23.957031 -32.296875 21.1875 -32.296875 C 19.582031 -32.296875 18.128906 -32.125 16.828125 -31.78125 C 15.484375 -31.382812 14.1875 -30.753906 12.9375 -29.890625 C 11.675781 -29.023438 10.695312 -27.726562 10 -26 C 9.269531 -24.21875 8.90625 -22.09375 8.90625 -19.625 C 8.90625 -17.332031 9.1875 -15.335938 9.75 -13.640625 C 10.3125 -11.910156 11.023438 -10.59375 11.890625 -9.6875 C 12.710938 -8.726562 13.707031 -7.96875 14.875 -7.40625 C 16.050781 -6.800781 17.132812 -6.410156 18.125 -6.234375 C 19.082031 -6.066406 20.101562 -5.984375 21.1875 -5.984375 C 23.957031 -5.984375 26.335938 -6.476562 28.328125 -7.46875 C 28.765625 -7.6875 29.203125 -7.796875 29.640625 -7.796875 C 30.460938 -7.796875 31.195312 -7.492188 31.84375 -6.890625 C 32.445312 -6.285156 32.75 -5.570312 32.75 -4.75 C 32.75 -3.53125 32.226562 -2.640625 31.1875 -2.078125 C 28.414062 -0.429688 25.101562 0.390625 21.25 0.390625 Z M 21.25 0.390625 "/></g></g></g><g fill="#ffffff" fill-opacity="1"><g transform="translate(438.658812, 68.420234)"><g><path d="M 28.328125 -15.34375 L 10.53125 -15.34375 L 10.53125 -3.3125 C 10.53125 -2.40625 10.203125 -1.625 9.546875 -0.96875 C 8.898438 -0.320312 8.125 0 7.21875 0 C 6.300781 0 5.519531 -0.320312 4.875 -0.96875 C 4.226562 -1.625 3.90625 -2.40625 3.90625 -3.3125 L 3.90625 -35.03125 C 3.90625 -35.9375 4.226562 -36.710938 4.875 -37.359375 C 5.519531 -38.015625 6.300781 -38.34375 7.21875 -38.34375 C 8.125 -38.34375 8.898438 -38.015625 9.546875 -37.359375 C 10.203125 -36.710938 10.53125 -35.9375 10.53125 -35.03125 L 10.53125 -21.640625 L 28.328125 -21.640625 L 28.328125 -35.03125 C 28.328125 -35.9375 28.65625 -36.710938 29.3125 -37.359375 C 29.957031 -38.015625 30.734375 -38.34375 31.640625 -38.34375 C 32.554688 -38.34375 33.335938 -38.015625 33.984375 -37.359375 C 34.640625 -36.710938 34.96875 -35.9375 34.96875 -35.03125 L 34.96875 -3.3125 C 34.96875 -2.40625 34.640625 -1.625 33.984375 -0.96875 C 33.335938 -0.320312 32.554688 0 31.640625 0 C 30.734375 0 29.957031 -0.320312 29.3125 -0.96875 C 28.65625 -1.625 28.328125 -2.40625 28.328125 -3.3125 Z M 28.328125 -15.34375 "/></g></g></g></g></g></svg>