<svg xmlns="http://www.w3.org/2000/svg" xmlns:xlink="http://www.w3.org/1999/xlink" width="2000" zoomAndPan="magnify" viewBox="0 0 1500 1499.999933" height="2000" preserveAspectRatio="xMidYMid meet" version="1.0"><path fill="#ffffff" d="M 1044.0625 988.078125 L 1044.0625 889.679688 C 1167.339844 863.667969 1258.953125 755.089844 1258.953125 623.890625 C 1258.953125 473.46875 1137.933594 352.449219 987.511719 352.449219 C 837.085938 352.449219 716.070312 474.597656 716.070312 625.023438 C 716.070312 755.089844 807.679688 864.796875 930.960938 890.808594 L 930.960938 989.207031 C 911.734375 993.730469 897.03125 1011.828125 897.03125 1033.316406 L 897.03125 1304.757812 C 897.03125 1329.640625 917.386719 1350 942.269531 1350 L 1032.75 1350 C 1057.632812 1350 1077.992188 1329.640625 1077.992188 1304.757812 L 1077.992188 1032.1875 C 1077.992188 1010.699219 1063.289062 993.730469 1044.0625 988.078125 Z M 761.308594 625.023438 C 761.308594 500.613281 863.097656 398.820312 987.511719 398.820312 C 1111.921875 398.820312 1213.710938 500.613281 1213.710938 625.023438 C 1213.710938 749.433594 1111.921875 851.226562 987.511719 851.226562 C 863.097656 851.226562 761.308594 749.433594 761.308594 625.023438 Z M 998.820312 896.464844 L 998.820312 986.945312 L 976.199219 986.945312 L 976.199219 896.464844 Z M 1032.75 1303.628906 L 942.269531 1303.628906 L 942.269531 1032.1875 L 1032.75 1032.1875 Z M 1032.75 1303.628906 " fill-opacity="1" fill-rule="nonzero"/><path fill="#ffffff" d="M 1153.769531 553.769531 C 1042.929688 556.03125 938.878906 578.652344 849.527344 620.5 C 846.132812 621.628906 842.742188 622.761719 840.480469 622.761719 C 831.429688 622.761719 823.515625 618.238281 820.121094 609.1875 C 814.464844 597.878906 820.121094 584.308594 831.429688 578.652344 C 918.519531 537.9375 1020.308594 515.316406 1126.625 509.660156 C 1104.003906 482.515625 1073.46875 462.160156 1037.273438 451.980469 C 970.546875 463.289062 907.207031 481.386719 850.660156 507.398438 C 823.515625 537.9375 806.550781 579.78125 806.550781 625.023438 C 806.550781 651.035156 812.203125 675.917969 822.382812 698.539062 C 824.644531 695.144531 826.90625 692.882812 830.300781 691.753906 C 928.699219 646.511719 1045.191406 621.628906 1167.339844 620.5 C 1167.339844 597.878906 1162.816406 574.128906 1153.769531 553.769531 Z M 1153.769531 553.769531 " fill-opacity="1" fill-rule="nonzero"/><path fill="#ffffff" d="M 1425.210938 185.0625 C 1347.171875 162.441406 1263.476562 150 1176.390625 150 C 1014.65625 150 859.707031 191.847656 748.867188 266.492188 C 639.160156 191.847656 485.34375 150 323.609375 150 C 236.519531 150 152.828125 161.308594 74.785156 185.0625 C 46.511719 192.976562 26.152344 220.121094 26.152344 249.527344 L 26.152344 1103.441406 C 26.152344 1124.929688 35.203125 1144.15625 52.167969 1156.597656 C 69.132812 1169.039062 89.488281 1174.695312 109.847656 1169.039062 C 177.707031 1153.203125 248.960938 1144.15625 322.476562 1144.15625 C 471.769531 1144.15625 610.882812 1178.085938 714.9375 1239.160156 C 725.117188 1245.945312 737.558594 1248.210938 748.867188 1248.210938 C 760.179688 1248.210938 772.617188 1244.816406 782.796875 1239.160156 C 804.285156 1226.71875 826.90625 1215.410156 850.660156 1205.230469 L 850.660156 1071.773438 C 849.527344 1071.773438 849.527344 1071.773438 848.394531 1072.902344 C 845.003906 1074.035156 841.609375 1075.164062 839.347656 1075.164062 C 830.300781 1075.164062 822.382812 1070.640625 818.988281 1061.59375 C 813.335938 1050.28125 818.988281 1036.710938 830.300781 1031.054688 C 837.085938 1027.664062 845.003906 1025.402344 851.789062 1022.007812 C 854.050781 998.257812 866.492188 975.636719 885.71875 960.933594 L 885.71875 943.96875 C 873.277344 948.492188 861.96875 954.148438 849.527344 958.671875 C 846.132812 959.800781 842.742188 960.933594 840.480469 960.933594 C 831.429688 960.933594 823.515625 956.410156 820.121094 947.359375 C 814.464844 936.050781 820.121094 922.480469 831.429688 916.824219 C 838.21875 913.429688 843.871094 911.167969 850.660156 908.90625 C 743.210938 858.011719 670.828125 748.304688 670.828125 625.023438 C 670.828125 622.761719 670.828125 620.5 670.828125 619.367188 C 667.433594 621.628906 662.910156 622.761719 659.519531 622.761719 C 656.125 622.761719 652.730469 621.628906 650.46875 620.5 C 555.464844 576.390625 442.363281 553.769531 323.609375 553.769531 C 262.535156 553.769531 201.460938 560.554688 144.910156 571.867188 C 132.46875 574.128906 121.15625 566.210938 117.765625 554.902344 C 115.503906 542.460938 123.421875 531.148438 134.730469 527.757812 C 194.671875 515.316406 259.140625 508.53125 323.609375 508.53125 C 449.152344 508.53125 569.039062 533.410156 669.695312 579.78125 C 671.960938 580.914062 673.089844 582.046875 674.222656 583.175781 C 693.449219 440.667969 806.550781 328.699219 949.054688 310.601562 C 1020.308594 291.375 1097.21875 281.195312 1177.519531 281.195312 C 1241.988281 281.195312 1305.324219 287.984375 1366.398438 300.425781 C 1378.839844 302.6875 1386.757812 315.128906 1383.363281 327.566406 C 1379.96875 340.007812 1368.660156 347.925781 1356.21875 344.535156 C 1298.539062 332.09375 1238.59375 326.4375 1177.519531 326.4375 C 1152.636719 326.4375 1127.753906 327.566406 1104.003906 329.832031 C 1142.457031 344.535156 1176.390625 367.152344 1205.796875 395.429688 C 1260.082031 396.558594 1314.371094 403.347656 1365.265625 414.65625 C 1377.707031 416.917969 1385.625 429.359375 1382.230469 441.800781 C 1379.96875 454.242188 1367.527344 462.160156 1355.089844 458.765625 C 1320.027344 450.847656 1282.703125 446.324219 1245.378906 442.929688 C 1282.703125 494.957031 1304.191406 557.164062 1304.191406 625.023438 C 1304.191406 627.285156 1304.191406 628.417969 1304.191406 630.679688 C 1324.550781 634.070312 1346.039062 637.464844 1365.265625 640.859375 C 1377.707031 643.121094 1385.625 655.5625 1382.230469 668 C 1378.839844 680.441406 1367.527344 688.359375 1355.089844 684.96875 C 1336.992188 681.574219 1317.765625 678.179688 1299.667969 674.789062 C 1296.277344 698.539062 1289.488281 721.160156 1280.441406 742.648438 C 1280.441406 741.515625 1281.574219 740.386719 1281.574219 739.253906 C 1309.847656 742.648438 1338.125 747.171875 1365.265625 752.828125 C 1377.707031 755.089844 1385.625 767.53125 1382.230469 779.972656 C 1378.839844 792.414062 1367.527344 800.328125 1355.089844 796.9375 C 1324.550781 790.152344 1292.882812 785.625 1260.082031 782.234375 C 1246.511719 805.984375 1229.546875 827.472656 1210.320312 846.703125 C 1262.34375 848.964844 1314.371094 854.617188 1364.136719 864.796875 C 1376.578125 867.058594 1384.496094 879.5 1381.101562 891.941406 C 1377.707031 904.382812 1366.398438 912.300781 1353.957031 908.90625 C 1296.277344 896.464844 1236.332031 890.8125 1175.257812 890.8125 C 1168.472656 890.8125 1160.554688 890.8125 1153.769531 890.8125 C 1133.410156 904.382812 1110.789062 914.5625 1087.039062 922.480469 L 1087.039062 959.800781 C 1088.171875 960.933594 1089.300781 962.0625 1090.433594 963.195312 C 1118.707031 960.933594 1146.984375 959.800781 1175.257812 959.800781 C 1239.726562 959.800781 1303.0625 966.589844 1364.136719 979.027344 C 1376.578125 981.292969 1384.496094 993.730469 1381.101562 1006.171875 C 1377.707031 1018.613281 1366.398438 1026.53125 1353.957031 1023.136719 C 1296.277344 1010.699219 1236.332031 1005.042969 1175.257812 1005.042969 C 1156.03125 1005.042969 1136.804688 1006.171875 1117.578125 1007.304688 C 1119.839844 1015.222656 1120.96875 1023.136719 1120.96875 1032.1875 L 1120.96875 1146.417969 C 1139.066406 1145.289062 1157.160156 1145.289062 1175.257812 1145.289062 C 1248.773438 1145.289062 1321.15625 1153.203125 1387.886719 1170.167969 C 1408.246094 1174.695312 1429.734375 1170.167969 1445.570312 1157.730469 C 1462.535156 1145.289062 1471.582031 1124.929688 1471.582031 1104.570312 L 1471.582031 249.527344 C 1473.84375 220.121094 1453.484375 192.976562 1425.210938 185.0625 Z M 679.875 1061.59375 C 676.484375 1069.507812 667.433594 1075.164062 659.519531 1075.164062 C 656.125 1075.164062 652.730469 1074.035156 650.46875 1072.902344 C 555.464844 1028.792969 442.363281 1006.171875 323.609375 1006.171875 C 262.535156 1006.171875 201.460938 1012.960938 144.910156 1024.269531 C 132.46875 1026.53125 121.15625 1018.613281 117.765625 1007.304688 C 115.503906 994.863281 123.421875 983.554688 134.730469 980.160156 C 194.671875 967.71875 259.140625 960.933594 323.609375 960.933594 C 449.152344 960.933594 569.039062 985.816406 669.695312 1032.1875 C 679.875 1036.710938 685.53125 1050.28125 679.875 1061.59375 Z M 679.875 948.492188 C 676.484375 956.410156 667.433594 962.0625 659.519531 962.0625 C 656.125 962.0625 652.730469 960.933594 650.46875 959.800781 C 555.464844 915.691406 442.363281 893.074219 323.609375 893.074219 C 262.535156 893.074219 201.460938 899.859375 144.910156 911.167969 C 132.46875 913.429688 121.15625 905.511719 117.765625 894.203125 C 115.503906 881.761719 123.421875 870.453125 134.730469 867.058594 C 194.671875 854.617188 259.140625 847.832031 323.609375 847.832031 C 449.152344 847.832031 569.039062 872.714844 669.695312 919.085938 C 679.875 923.609375 685.53125 937.183594 679.875 948.492188 Z M 679.875 835.390625 C 676.484375 843.308594 667.433594 848.964844 659.519531 848.964844 C 656.125 848.964844 652.730469 847.832031 650.46875 846.699219 C 555.464844 802.589844 442.363281 779.972656 323.609375 779.972656 C 262.535156 779.972656 201.460938 786.757812 144.910156 798.066406 C 132.46875 800.328125 121.15625 792.414062 117.765625 781.101562 C 115.503906 768.660156 123.421875 757.351562 134.730469 753.957031 C 194.671875 741.515625 259.140625 734.730469 323.609375 734.730469 C 449.152344 734.730469 569.039062 759.613281 669.695312 805.984375 C 679.875 810.507812 685.53125 824.082031 679.875 835.390625 Z M 134.730469 640.859375 C 194.671875 628.417969 259.140625 621.628906 323.609375 621.628906 C 449.152344 621.628906 569.039062 646.511719 669.695312 692.882812 C 681.007812 698.539062 685.53125 712.109375 681.007812 723.421875 C 677.613281 731.339844 668.566406 736.992188 660.648438 736.992188 C 657.257812 736.992188 653.863281 735.863281 651.601562 734.730469 C 556.597656 690.621094 443.496094 668 324.738281 668 C 263.664062 668 202.589844 674.789062 146.039062 686.097656 C 133.597656 688.359375 122.289062 680.441406 118.894531 669.132812 C 114.371094 655.5625 122.289062 643.121094 134.730469 640.859375 Z M 679.875 496.089844 C 676.484375 504.003906 667.433594 509.660156 659.519531 509.660156 C 656.125 509.660156 652.730469 508.53125 650.46875 507.398438 C 555.464844 463.289062 442.363281 440.667969 323.609375 440.667969 C 262.535156 440.667969 201.460938 447.457031 144.910156 458.765625 C 132.46875 461.027344 121.15625 453.109375 117.765625 441.800781 C 115.503906 429.359375 123.421875 418.050781 134.730469 414.65625 C 194.671875 402.214844 259.140625 395.429688 323.609375 395.429688 C 449.152344 395.429688 569.039062 420.3125 669.695312 466.683594 C 679.875 471.207031 685.53125 484.777344 679.875 496.089844 Z M 679.875 382.988281 C 676.484375 390.90625 667.433594 396.558594 659.519531 396.558594 C 656.125 396.558594 652.730469 395.429688 650.46875 394.296875 C 555.464844 350.1875 442.363281 327.566406 323.609375 327.566406 C 262.535156 327.566406 201.460938 334.355469 144.910156 345.664062 C 132.46875 347.925781 121.15625 340.007812 117.765625 328.699219 C 115.503906 316.257812 123.421875 304.949219 134.730469 301.554688 C 194.671875 289.113281 259.140625 282.328125 323.609375 282.328125 C 449.152344 282.328125 569.039062 307.210938 669.695312 353.582031 C 679.875 358.105469 685.53125 371.675781 679.875 382.988281 Z M 679.875 382.988281 " fill-opacity="1" fill-rule="nonzero"/><path fill="#ffffff" d="M 1163.949219 666.871094 C 1049.714844 668 941.140625 691.753906 850.660156 733.601562 C 848.394531 734.730469 847.265625 734.730469 845.003906 735.863281 C 858.574219 753.957031 875.539062 768.660156 895.898438 781.101562 C 968.285156 756.21875 1048.585938 740.386719 1132.28125 736.992188 C 1145.851562 715.503906 1157.160156 691.753906 1163.949219 666.871094 Z M 1163.949219 666.871094 " fill-opacity="1" fill-rule="nonzero"/></svg>