<svg xmlns="http://www.w3.org/2000/svg" xmlns:xlink="http://www.w3.org/1999/xlink" width="2000" zoomAndPan="magnify" viewBox="0 0 1500 1499.999933" height="2000" preserveAspectRatio="xMidYMid meet" version="1.0"><defs><g/><clipPath id="881f76eaf8"><path d="M 738 416 L 926 416 L 926 760.578125 L 738 760.578125 Z M 738 416 " clip-rule="nonzero"/></clipPath><clipPath id="5384c958c9"><path d="M 500 346.578125 L 1000 346.578125 L 1000 726 L 500 726 Z M 500 346.578125 " clip-rule="nonzero"/></clipPath><clipPath id="4796a52ee4"><rect x="0" width="1186" y="0" height="323"/></clipPath><clipPath id="1cfb4812e7"><rect x="0" width="534" y="0" height="88"/></clipPath></defs><g clip-path="url(#881f76eaf8)"><path fill="#000000" d="M 851.484375 635.714844 L 851.484375 601.769531 C 894.011719 592.792969 925.613281 555.335938 925.613281 510.074219 C 925.613281 458.175781 883.867188 416.425781 831.976562 416.425781 C 780.085938 416.425781 738.339844 458.566406 738.339844 510.460938 C 738.339844 555.335938 769.941406 593.183594 812.46875 602.160156 L 812.46875 636.105469 C 805.835938 637.667969 800.765625 643.910156 800.765625 651.324219 L 800.765625 744.972656 C 800.765625 753.554688 807.789062 760.578125 816.371094 760.578125 L 847.582031 760.578125 C 856.167969 760.578125 863.1875 753.554688 863.1875 744.972656 L 863.1875 650.933594 C 863.1875 643.519531 858.117188 637.667969 851.484375 635.714844 Z M 753.945312 510.460938 C 753.945312 467.539062 789.058594 432.421875 831.976562 432.421875 C 874.894531 432.421875 910.007812 467.539062 910.007812 510.460938 C 910.007812 553.382812 874.894531 588.503906 831.976562 588.503906 C 789.058594 588.503906 753.945312 553.382812 753.945312 510.460938 Z M 835.878906 604.109375 L 835.878906 635.324219 L 828.074219 635.324219 L 828.074219 604.109375 Z M 847.582031 744.582031 L 816.371094 744.582031 L 816.371094 650.933594 L 847.582031 650.933594 Z M 847.582031 744.582031 " fill-opacity="1" fill-rule="nonzero"/></g><path fill="#000000" d="M 889.328125 485.878906 C 851.09375 486.660156 815.199219 494.464844 784.378906 508.902344 C 783.207031 509.292969 782.039062 509.683594 781.257812 509.683594 C 778.136719 509.683594 775.40625 508.121094 774.234375 505 C 772.285156 501.097656 774.234375 496.414062 778.136719 494.464844 C 808.175781 480.417969 843.292969 472.613281 879.964844 470.664062 C 872.164062 461.296875 861.628906 454.273438 849.144531 450.761719 C 826.125 454.664062 804.277344 460.90625 784.769531 469.882812 C 775.40625 480.417969 769.554688 494.855469 769.554688 510.460938 C 769.554688 519.4375 771.503906 528.023438 775.015625 535.824219 C 775.796875 534.65625 776.574219 533.875 777.746094 533.484375 C 811.6875 517.875 851.875 509.292969 894.011719 508.902344 C 894.011719 501.097656 892.449219 492.902344 889.328125 485.878906 Z M 889.328125 485.878906 " fill-opacity="1" fill-rule="nonzero"/><g clip-path="url(#5384c958c9)"><path fill="#000000" d="M 982.964844 358.675781 C 956.042969 350.871094 927.171875 346.578125 897.132812 346.578125 C 841.339844 346.578125 787.890625 361.015625 749.65625 386.769531 C 711.8125 361.015625 658.75 346.578125 602.960938 346.578125 C 572.917969 346.578125 544.046875 350.480469 517.125 358.675781 C 507.371094 361.40625 500.351562 370.773438 500.351562 380.917969 L 500.351562 675.515625 C 500.351562 682.929688 503.472656 689.5625 509.324219 693.855469 C 515.175781 698.148438 522.199219 700.097656 529.222656 698.148438 C 552.628906 692.683594 577.210938 689.5625 602.570312 689.5625 C 654.070312 689.5625 702.058594 701.269531 737.949219 722.339844 C 741.460938 724.679688 745.753906 725.460938 749.65625 725.460938 C 753.558594 725.460938 757.847656 724.292969 761.359375 722.339844 C 768.773438 718.046875 776.574219 714.144531 784.769531 710.632812 L 784.769531 664.589844 C 784.378906 664.589844 784.378906 664.589844 783.988281 664.980469 C 782.816406 665.371094 781.648438 665.761719 780.867188 665.761719 C 777.746094 665.761719 775.015625 664.199219 773.84375 661.078125 C 771.894531 657.175781 773.84375 652.496094 777.746094 650.542969 C 780.085938 649.375 782.816406 648.59375 785.160156 647.421875 C 785.9375 639.226562 790.230469 631.425781 796.863281 626.351562 L 796.863281 620.5 C 792.570312 622.058594 788.671875 624.011719 784.378906 625.570312 C 783.207031 625.960938 782.039062 626.351562 781.257812 626.351562 C 778.136719 626.351562 775.40625 624.789062 774.234375 621.667969 C 772.285156 617.765625 774.234375 613.085938 778.136719 611.132812 C 780.476562 609.964844 782.429688 609.183594 784.769531 608.402344 C 747.703125 590.84375 722.734375 552.996094 722.734375 510.460938 C 722.734375 509.683594 722.734375 508.902344 722.734375 508.511719 C 721.566406 509.292969 720.003906 509.683594 718.832031 509.683594 C 717.664062 509.683594 716.492188 509.292969 715.710938 508.902344 C 682.941406 493.683594 643.925781 485.878906 602.960938 485.878906 C 581.890625 485.878906 560.824219 488.222656 541.316406 492.125 C 537.023438 492.902344 533.121094 490.171875 531.953125 486.269531 C 531.171875 481.976562 533.902344 478.078125 537.804688 476.90625 C 558.480469 472.613281 580.71875 470.273438 602.960938 470.273438 C 646.265625 470.273438 687.621094 478.855469 722.34375 494.855469 C 723.125 495.246094 723.515625 495.636719 723.90625 496.023438 C 730.539062 446.859375 769.554688 408.230469 818.710938 401.988281 C 843.292969 395.355469 869.820312 391.84375 897.523438 391.84375 C 919.761719 391.84375 941.609375 394.183594 962.675781 398.476562 C 966.96875 399.257812 969.699219 403.546875 968.527344 407.839844 C 967.359375 412.132812 963.457031 414.863281 959.164062 413.695312 C 939.269531 409.402344 918.589844 407.449219 897.523438 407.449219 C 888.9375 407.449219 880.355469 407.839844 872.164062 408.621094 C 885.425781 413.695312 897.132812 421.496094 907.277344 431.253906 C 926.003906 431.644531 944.730469 433.984375 962.285156 437.886719 C 966.578125 438.667969 969.308594 442.957031 968.140625 447.25 C 967.359375 451.542969 963.066406 454.273438 958.777344 453.105469 C 946.679688 450.371094 933.804688 448.8125 920.929688 447.640625 C 933.804688 465.589844 941.21875 487.050781 941.21875 510.460938 C 941.21875 511.242188 941.21875 511.632812 941.21875 512.414062 C 948.242188 513.585938 955.652344 514.753906 962.285156 515.925781 C 966.578125 516.707031 969.308594 521 968.140625 525.289062 C 966.96875 529.582031 963.066406 532.3125 958.777344 531.144531 C 952.53125 529.972656 945.902344 528.800781 939.65625 527.632812 C 938.488281 535.824219 936.148438 543.628906 933.027344 551.042969 C 933.027344 550.652344 933.414062 550.261719 933.414062 549.871094 C 943.167969 551.042969 952.921875 552.605469 962.285156 554.554688 C 966.578125 555.335938 969.308594 559.628906 968.140625 563.917969 C 966.96875 568.210938 963.066406 570.945312 958.777344 569.773438 C 948.242188 567.429688 937.316406 565.871094 926.003906 564.699219 C 921.320312 572.894531 915.46875 580.308594 908.835938 586.941406 C 926.78125 587.722656 944.730469 589.671875 961.898438 593.183594 C 966.1875 593.964844 968.917969 598.257812 967.75 602.550781 C 966.578125 606.839844 962.675781 609.574219 958.386719 608.402344 C 938.488281 604.109375 917.808594 602.160156 896.742188 602.160156 C 894.402344 602.160156 891.667969 602.160156 889.328125 602.160156 C 882.304688 606.839844 874.503906 610.351562 866.308594 613.085938 L 866.308594 625.960938 C 866.699219 626.351562 867.089844 626.742188 867.480469 627.132812 C 877.234375 626.351562 886.988281 625.960938 896.742188 625.960938 C 918.980469 625.960938 940.828125 628.300781 961.898438 632.59375 C 966.1875 633.375 968.917969 637.667969 967.75 641.960938 C 966.578125 646.25 962.675781 648.984375 958.386719 647.8125 C 938.488281 643.519531 917.808594 641.570312 896.742188 641.570312 C 890.109375 641.570312 883.476562 641.960938 876.84375 642.351562 C 877.625 645.082031 878.015625 647.8125 878.015625 650.933594 L 878.015625 690.34375 C 884.257812 689.953125 890.5 689.953125 896.742188 689.953125 C 922.101562 689.953125 947.070312 692.683594 970.089844 698.539062 C 977.113281 700.097656 984.523438 698.539062 989.988281 694.246094 C 995.839844 689.953125 998.960938 682.929688 998.960938 675.90625 L 998.960938 380.917969 C 999.742188 370.773438 992.71875 361.40625 982.964844 358.675781 Z M 725.855469 661.078125 C 724.6875 663.808594 721.566406 665.761719 718.832031 665.761719 C 717.664062 665.761719 716.492188 665.371094 715.710938 664.980469 C 682.941406 649.761719 643.925781 641.960938 602.960938 641.960938 C 581.890625 641.960938 560.824219 644.300781 541.316406 648.203125 C 537.023438 648.984375 533.121094 646.25 531.953125 642.347656 C 531.171875 638.058594 533.902344 634.15625 537.804688 632.984375 C 558.480469 628.691406 580.71875 626.351562 602.960938 626.351562 C 646.265625 626.351562 687.621094 634.9375 722.34375 650.933594 C 725.855469 652.496094 727.808594 657.175781 725.855469 661.078125 Z M 725.855469 622.058594 C 724.6875 624.789062 721.566406 626.742188 718.832031 626.742188 C 717.664062 626.742188 716.492188 626.351562 715.710938 625.960938 C 682.941406 610.742188 643.925781 602.941406 602.960938 602.941406 C 581.890625 602.941406 560.824219 605.28125 541.316406 609.183594 C 537.023438 609.964844 533.121094 607.230469 531.953125 603.328125 C 531.171875 599.039062 533.902344 595.136719 537.804688 593.964844 C 558.480469 589.671875 580.71875 587.332031 602.960938 587.332031 C 646.265625 587.332031 687.621094 595.917969 722.34375 611.914062 C 725.855469 613.476562 727.808594 618.15625 725.855469 622.058594 Z M 725.855469 583.039062 C 724.6875 585.769531 721.566406 587.722656 718.832031 587.722656 C 717.664062 587.722656 716.492188 587.332031 715.710938 586.941406 C 682.941406 571.722656 643.925781 563.917969 602.960938 563.917969 C 581.890625 563.917969 560.824219 566.261719 541.316406 570.164062 C 537.023438 570.941406 533.121094 568.210938 531.953125 564.308594 C 531.171875 560.019531 533.902344 556.117188 537.804688 554.945312 C 558.480469 550.652344 580.71875 548.3125 602.960938 548.3125 C 646.265625 548.3125 687.621094 556.894531 722.34375 572.894531 C 725.855469 574.457031 727.808594 579.136719 725.855469 583.039062 Z M 537.804688 515.925781 C 558.480469 511.632812 580.71875 509.292969 602.960938 509.292969 C 646.265625 509.292969 687.621094 517.875 722.34375 533.875 C 726.246094 535.824219 727.808594 540.507812 726.246094 544.410156 C 725.074219 547.140625 721.953125 549.09375 719.222656 549.09375 C 718.054688 549.09375 716.882812 548.703125 716.101562 548.3125 C 683.328125 533.09375 644.316406 525.289062 603.347656 525.289062 C 582.28125 525.289062 561.214844 527.632812 541.707031 531.535156 C 537.414062 532.3125 533.511719 529.582031 532.34375 525.679688 C 530.78125 521 533.511719 516.707031 537.804688 515.925781 Z M 725.855469 465.980469 C 724.6875 468.710938 721.566406 470.664062 718.832031 470.664062 C 717.664062 470.664062 716.492188 470.273438 715.710938 469.882812 C 682.941406 454.664062 643.925781 446.859375 602.960938 446.859375 C 581.890625 446.859375 560.824219 449.203125 541.316406 453.105469 C 537.023438 453.882812 533.121094 451.152344 531.953125 447.25 C 531.171875 442.957031 533.902344 439.054688 537.804688 437.886719 C 558.480469 433.59375 580.71875 431.253906 602.960938 431.253906 C 646.265625 431.253906 687.621094 439.835938 722.34375 455.835938 C 725.855469 457.394531 727.808594 462.078125 725.855469 465.980469 Z M 725.855469 426.960938 C 724.6875 429.691406 721.566406 431.644531 718.832031 431.644531 C 717.664062 431.644531 716.492188 431.253906 715.710938 430.863281 C 682.941406 415.644531 643.925781 407.839844 602.960938 407.839844 C 581.890625 407.839844 560.824219 410.183594 541.316406 414.082031 C 537.023438 414.863281 533.121094 412.132812 531.953125 408.230469 C 531.171875 403.9375 533.902344 400.035156 537.804688 398.867188 C 558.480469 394.574219 580.71875 392.234375 602.960938 392.234375 C 646.265625 392.234375 687.621094 400.816406 722.34375 416.816406 C 725.855469 418.375 727.808594 423.058594 725.855469 426.960938 Z M 725.855469 426.960938 " fill-opacity="1" fill-rule="nonzero"/></g><path fill="#000000" d="M 892.839844 524.898438 C 853.433594 525.289062 815.980469 533.484375 784.769531 547.921875 C 783.988281 548.3125 783.597656 548.3125 782.816406 548.703125 C 787.5 554.945312 793.351562 560.019531 800.375 564.308594 C 825.34375 555.726562 853.046875 550.261719 881.914062 549.09375 C 886.597656 541.679688 890.5 533.484375 892.839844 524.898438 Z M 892.839844 524.898438 " fill-opacity="1" fill-rule="nonzero"/><g transform="matrix(1, 0, 0, 1, 156, 740)"><g clip-path="url(#4796a52ee4)"><g fill="#000000" fill-opacity="1"><g transform="translate(2.467988, 255.211105)"><g><path d="M 66.953125 -141.59375 C 71.441406 -141.59375 75.441406 -140.394531 78.953125 -138 C 82.472656 -135.4375 84.957031 -132.15625 86.40625 -128.15625 L 127.921875 -16.5625 C 128.398438 -15.125 128.640625 -13.601562 128.640625 -12 C 128.640625 -8.632812 127.519531 -5.832031 125.28125 -3.59375 C 122.882812 -1.195312 120.003906 0 116.640625 0 C 111.203125 0 107.441406 -2.398438 105.359375 -7.203125 L 96 -32.15625 L 38.640625 -32.15625 L 29.28125 -7.203125 C 27.195312 -2.398438 23.4375 0 18 0 C 14.632812 0 11.832031 -1.195312 9.59375 -3.59375 C 7.195312 -5.832031 6 -8.632812 6 -12 C 6 -13.601562 6.238281 -15.125 6.71875 -16.5625 L 48.234375 -128.15625 C 49.679688 -132 52.164062 -135.203125 55.6875 -137.765625 C 59.039062 -140.316406 62.796875 -141.59375 66.953125 -141.59375 Z M 47.046875 -54.71875 L 87.59375 -54.71875 L 67.203125 -109.203125 Z M 47.046875 -54.71875 "/></g></g></g><g fill="#000000" fill-opacity="1"><g transform="translate(134.707778, 255.211105)"><g><path d="M 92.40625 -116.640625 C 82.476562 -118.398438 73.835938 -119.28125 66.484375 -119.28125 C 62.003906 -119.28125 58.320312 -119.203125 55.4375 -119.046875 C 52.394531 -118.722656 48.957031 -118.082031 45.125 -117.125 C 41.125 -116.164062 38.082031 -114.5625 36 -112.3125 C 33.914062 -109.914062 32.875 -106.878906 32.875 -103.203125 C 32.875 -99.203125 35.753906 -95.601562 41.515625 -92.40625 C 47.273438 -89.039062 54.316406 -86 62.640625 -83.28125 C 70.796875 -80.394531 79.035156 -77.273438 87.359375 -73.921875 C 95.679688 -70.398438 102.722656 -65.679688 108.484375 -59.765625 C 114.242188 -53.679688 117.125 -46.640625 117.125 -38.640625 C 117.125 -25.203125 112.242188 -15.203125 102.484375 -8.640625 C 92.722656 -1.921875 79.519531 1.4375 62.875 1.4375 C 47.039062 1.4375 32.644531 -1.519531 19.6875 -7.4375 C 15.84375 -9.351562 13.921875 -12.632812 13.921875 -17.28125 C 13.921875 -20.15625 14.960938 -22.632812 17.046875 -24.71875 C 18.960938 -26.800781 21.28125 -27.84375 24 -27.84375 C 24.632812 -27.84375 25.59375 -27.679688 26.875 -27.359375 C 37.4375 -23.835938 47.4375 -22.078125 56.875 -22.078125 C 80.71875 -22.078125 92.640625 -27.519531 92.640625 -38.40625 C 92.640625 -42.40625 89.757812 -46.003906 84 -49.203125 C 78.238281 -52.398438 71.28125 -55.359375 63.125 -58.078125 C 54.800781 -60.796875 46.476562 -63.835938 38.15625 -67.203125 C 29.84375 -70.398438 22.804688 -74.957031 17.046875 -80.875 C 11.285156 -86.800781 8.40625 -93.679688 8.40625 -101.515625 C 8.40625 -109.835938 9.921875 -116.878906 12.953125 -122.640625 C 15.992188 -128.398438 20.316406 -132.71875 25.921875 -135.59375 C 31.515625 -138.320312 37.351562 -140.242188 43.4375 -141.359375 C 49.351562 -142.316406 56.3125 -142.796875 64.3125 -142.796875 C 77.4375 -142.796875 87.679688 -141.835938 95.046875 -139.921875 C 97.597656 -139.117188 99.835938 -137.675781 101.765625 -135.59375 C 103.523438 -133.519531 104.40625 -131.125 104.40625 -128.40625 C 104.40625 -125.039062 103.285156 -122.238281 101.046875 -120 C 98.640625 -117.757812 95.757812 -116.640625 92.40625 -116.640625 Z M 92.40625 -116.640625 "/></g></g></g><g fill="#000000" fill-opacity="1"><g transform="translate(257.827543, 255.211105)"><g><path d="M 95.28125 -135.84375 C 97.519531 -139.675781 100.957031 -141.59375 105.59375 -141.59375 C 109.113281 -141.59375 112.078125 -140.472656 114.484375 -138.234375 C 116.722656 -135.835938 117.84375 -132.878906 117.84375 -129.359375 C 117.84375 -127.117188 117.363281 -125.039062 116.40625 -123.125 L 72.953125 -47.765625 L 72.953125 -12.234375 C 72.953125 -8.878906 71.753906 -6 69.359375 -3.59375 C 66.960938 -1.195312 64.082031 0 60.71875 0 C 57.363281 0 54.484375 -1.195312 52.078125 -3.59375 C 49.679688 -6 48.484375 -8.878906 48.484375 -12.234375 L 48.484375 -47.765625 L 5.046875 -123.125 C 4.078125 -125.039062 3.59375 -127.117188 3.59375 -129.359375 C 3.59375 -132.878906 4.796875 -135.835938 7.203125 -138.234375 C 9.441406 -140.472656 12.320312 -141.59375 15.84375 -141.59375 C 20.476562 -141.59375 23.914062 -139.675781 26.15625 -135.84375 L 60.484375 -76.078125 Z M 95.28125 -135.84375 "/></g></g></g><g fill="#000000" fill-opacity="1"><g transform="translate(376.867315, 255.211105)"><g><path d="M 81.125 -30.484375 C 75.039062 -30.484375 70.238281 -33.039062 66.71875 -38.15625 L 38.875 -81.84375 L 38.875 -12.234375 C 38.875 -8.878906 37.675781 -6 35.28125 -3.59375 C 32.882812 -1.195312 30.003906 0 26.640625 0 C 23.273438 0 20.394531 -1.195312 18 -3.59375 C 15.601562 -6 14.40625 -8.878906 14.40625 -12.234375 L 14.40625 -131.046875 C 14.40625 -133.921875 15.441406 -136.398438 17.515625 -138.484375 C 19.597656 -140.554688 22.078125 -141.59375 24.953125 -141.59375 C 28.640625 -141.59375 31.601562 -140.078125 33.84375 -137.046875 L 81.125 -60.71875 L 128.40625 -137.046875 C 130.644531 -140.078125 133.601562 -141.59375 137.28125 -141.59375 C 140.15625 -141.59375 142.632812 -140.554688 144.71875 -138.484375 C 146.800781 -136.398438 147.84375 -133.921875 147.84375 -131.046875 L 147.84375 -12.234375 C 147.84375 -8.878906 146.640625 -6 144.234375 -3.59375 C 141.835938 -1.195312 138.957031 0 135.59375 0 C 132.238281 0 129.359375 -1.195312 126.953125 -3.59375 C 124.554688 -6 123.359375 -8.878906 123.359375 -12.234375 L 123.359375 -81.84375 L 95.515625 -38.15625 C 91.992188 -33.039062 87.195312 -30.484375 81.125 -30.484375 Z M 81.125 -30.484375 "/></g></g></g><g fill="#000000" fill-opacity="1"><g transform="translate(536.707046, 255.211105)"><g><path d="M 37.6875 -12.234375 C 37.6875 -8.878906 36.484375 -6 34.078125 -3.59375 C 31.679688 -1.195312 28.800781 0 25.4375 0 C 22.082031 0 19.203125 -1.195312 16.796875 -3.59375 C 14.398438 -6 13.203125 -8.878906 13.203125 -12.234375 L 13.203125 -129.359375 C 13.203125 -132.722656 14.398438 -135.601562 16.796875 -138 C 19.203125 -140.394531 22.082031 -141.59375 25.4375 -141.59375 L 78.953125 -141.59375 C 86.160156 -141.59375 93.039062 -140.078125 99.59375 -137.046875 C 106 -134.003906 111.601562 -128.800781 116.40625 -121.4375 C 121.195312 -113.914062 123.59375 -104.875 123.59375 -94.3125 C 123.59375 -84.875 122.316406 -76.71875 119.765625 -69.84375 C 117.046875 -62.957031 113.441406 -57.753906 108.953125 -54.234375 C 104.472656 -50.710938 99.835938 -48.234375 95.046875 -46.796875 C 90.242188 -45.203125 85.125 -44.40625 79.6875 -44.40625 L 37.6875 -44.40625 Z M 37.6875 -118.5625 L 37.6875 -67.4375 L 78.71875 -67.4375 C 92.476562 -67.4375 99.359375 -76.394531 99.359375 -94.3125 C 99.359375 -103.113281 97.4375 -109.359375 93.59375 -113.046875 C 89.59375 -116.722656 84.632812 -118.5625 78.71875 -118.5625 Z M 37.6875 -118.5625 "/></g></g></g><g fill="#000000" fill-opacity="1"><g transform="translate(663.906799, 255.211105)"><g><path d="M 50.15625 -118.078125 L 20.15625 -118.078125 C 16.957031 -118.078125 14.238281 -119.28125 12 -121.6875 C 9.601562 -123.925781 8.40625 -126.644531 8.40625 -129.84375 C 8.40625 -133.039062 9.601562 -135.835938 12 -138.234375 C 14.238281 -140.472656 16.957031 -141.59375 20.15625 -141.59375 L 104.640625 -141.59375 C 107.835938 -141.59375 110.640625 -140.472656 113.046875 -138.234375 C 115.285156 -135.835938 116.40625 -133.039062 116.40625 -129.84375 C 116.40625 -126.644531 115.285156 -123.925781 113.046875 -121.6875 C 110.640625 -119.28125 107.835938 -118.078125 104.640625 -118.078125 L 74.640625 -118.078125 L 74.640625 -12.234375 C 74.640625 -8.878906 73.441406 -6 71.046875 -3.59375 C 68.640625 -1.195312 65.757812 0 62.40625 0 C 59.039062 0 56.160156 -1.195312 53.765625 -3.59375 C 51.359375 -6 50.15625 -8.878906 50.15625 -12.234375 Z M 50.15625 -118.078125 "/></g></g></g><g fill="#000000" fill-opacity="1"><g transform="translate(786.306556, 255.211105)"><g><path d="M 78.71875 1.4375 C 72.957031 1.4375 67.28125 0.796875 61.6875 -0.484375 C 55.925781 -1.597656 49.925781 -3.914062 43.6875 -7.4375 C 37.4375 -10.800781 31.992188 -15.203125 27.359375 -20.640625 C 22.554688 -25.921875 18.632812 -33.117188 15.59375 -42.234375 C 12.394531 -51.203125 10.796875 -61.523438 10.796875 -73.203125 C 10.796875 -85.523438 12.878906 -96.320312 17.046875 -105.59375 C 21.046875 -114.875 26.484375 -122.15625 33.359375 -127.4375 C 40.078125 -132.5625 47.273438 -136.398438 54.953125 -138.953125 C 62.640625 -141.515625 70.5625 -142.796875 78.71875 -142.796875 C 86.875 -142.796875 94.796875 -141.515625 102.484375 -138.953125 C 110.160156 -136.398438 117.4375 -132.5625 124.3125 -127.4375 C 131.039062 -122.15625 136.484375 -114.875 140.640625 -105.59375 C 144.640625 -96.320312 146.640625 -85.523438 146.640625 -73.203125 C 146.640625 -61.523438 145.117188 -51.203125 142.078125 -42.234375 C 138.878906 -33.117188 134.957031 -25.921875 130.3125 -20.640625 C 125.519531 -15.203125 120.003906 -10.800781 113.765625 -7.4375 C 107.523438 -3.914062 101.601562 -1.597656 96 -0.484375 C 90.238281 0.796875 84.476562 1.4375 78.71875 1.4375 Z M 78.71875 -22.078125 C 83.84375 -22.078125 88.5625 -22.71875 92.875 -24 C 97.195312 -25.125 101.757812 -27.363281 106.5625 -30.71875 C 111.363281 -33.914062 115.203125 -39.113281 118.078125 -46.3125 C 120.796875 -53.351562 122.15625 -62.078125 122.15625 -72.484375 C 122.15625 -103.679688 107.675781 -119.28125 78.71875 -119.28125 C 49.757812 -119.28125 35.28125 -103.679688 35.28125 -72.484375 C 35.28125 -62.078125 36.71875 -53.351562 39.59375 -46.3125 C 42.320312 -39.113281 46.082031 -33.914062 50.875 -30.71875 C 55.675781 -27.363281 60.238281 -25.125 64.5625 -24 C 68.882812 -22.71875 73.601562 -22.078125 78.71875 -22.078125 Z M 78.71875 -22.078125 "/></g></g></g><g fill="#000000" fill-opacity="1"><g transform="translate(941.346291, 255.211105)"><g><path d="M 50.15625 -118.078125 L 20.15625 -118.078125 C 16.957031 -118.078125 14.238281 -119.28125 12 -121.6875 C 9.601562 -123.925781 8.40625 -126.644531 8.40625 -129.84375 C 8.40625 -133.039062 9.601562 -135.835938 12 -138.234375 C 14.238281 -140.472656 16.957031 -141.59375 20.15625 -141.59375 L 104.640625 -141.59375 C 107.835938 -141.59375 110.640625 -140.472656 113.046875 -138.234375 C 115.285156 -135.835938 116.40625 -133.039062 116.40625 -129.84375 C 116.40625 -126.644531 115.285156 -123.925781 113.046875 -121.6875 C 110.640625 -119.28125 107.835938 -118.078125 104.640625 -118.078125 L 74.640625 -118.078125 L 74.640625 -12.234375 C 74.640625 -8.878906 73.441406 -6 71.046875 -3.59375 C 68.640625 -1.195312 65.757812 0 62.40625 0 C 59.039062 0 56.160156 -1.195312 53.765625 -3.59375 C 51.359375 -6 50.15625 -8.878906 50.15625 -12.234375 Z M 50.15625 -118.078125 "/></g></g></g><g fill="#000000" fill-opacity="1"><g transform="translate(1063.746048, 255.211105)"><g><path d="M 14.40625 -130.078125 C 14.40625 -133.273438 15.523438 -135.992188 17.765625 -138.234375 C 20.003906 -140.472656 22.722656 -141.59375 25.921875 -141.59375 L 98.15625 -141.59375 C 101.195312 -141.59375 103.914062 -140.472656 106.3125 -138.234375 C 108.5625 -135.992188 109.6875 -133.273438 109.6875 -130.078125 C 109.6875 -126.878906 108.5625 -124.160156 106.3125 -121.921875 C 103.914062 -119.679688 101.195312 -118.5625 98.15625 -118.5625 L 38.875 -118.5625 L 38.875 -79.6875 L 85.203125 -79.6875 C 88.242188 -79.6875 90.960938 -78.5625 93.359375 -76.3125 C 95.597656 -74.070312 96.71875 -71.351562 96.71875 -68.15625 C 96.71875 -64.957031 95.597656 -62.238281 93.359375 -60 C 90.960938 -57.757812 88.242188 -56.640625 85.203125 -56.640625 L 38.875 -56.640625 L 38.875 -23.046875 L 98.15625 -23.046875 C 101.195312 -23.046875 103.914062 -21.925781 106.3125 -19.6875 C 108.5625 -17.4375 109.6875 -14.710938 109.6875 -11.515625 C 109.6875 -8.316406 108.5625 -5.597656 106.3125 -3.359375 C 103.914062 -1.117188 101.195312 0 98.15625 0 L 25.921875 0 C 22.722656 0 20.003906 -1.117188 17.765625 -3.359375 C 15.523438 -5.597656 14.40625 -8.316406 14.40625 -11.515625 Z M 14.40625 -130.078125 "/></g></g></g></g></g><g transform="matrix(1, 0, 0, 1, 509, 1069)"><g clip-path="url(#1cfb4812e7)"><g fill="#000000" fill-opacity="1"><g transform="translate(4.382746, 68.420234)"><g><path d="M 25.015625 -31.578125 C 22.328125 -32.054688 19.988281 -32.296875 18 -32.296875 C 16.789062 -32.296875 15.796875 -32.273438 15.015625 -32.234375 C 14.191406 -32.148438 13.257812 -31.976562 12.21875 -31.71875 C 11.132812 -31.457031 10.3125 -31.019531 9.75 -30.40625 C 9.1875 -29.757812 8.90625 -28.9375 8.90625 -27.9375 C 8.90625 -26.851562 9.6875 -25.878906 11.25 -25.015625 C 12.800781 -24.109375 14.703125 -23.285156 16.953125 -22.546875 C 19.171875 -21.765625 21.40625 -20.921875 23.65625 -20.015625 C 25.90625 -19.054688 27.8125 -17.78125 29.375 -16.1875 C 30.9375 -14.539062 31.71875 -12.632812 31.71875 -10.46875 C 31.71875 -6.820312 30.394531 -4.113281 27.75 -2.34375 C 25.101562 -0.519531 21.53125 0.390625 17.03125 0.390625 C 12.738281 0.390625 8.835938 -0.410156 5.328125 -2.015625 C 4.285156 -2.535156 3.765625 -3.421875 3.765625 -4.671875 C 3.765625 -5.453125 4.046875 -6.125 4.609375 -6.6875 C 5.128906 -7.25 5.757812 -7.53125 6.5 -7.53125 C 6.675781 -7.53125 6.9375 -7.488281 7.28125 -7.40625 C 10.132812 -6.457031 12.84375 -5.984375 15.40625 -5.984375 C 21.851562 -5.984375 25.078125 -7.453125 25.078125 -10.390625 C 25.078125 -11.472656 24.300781 -12.453125 22.75 -13.328125 C 21.1875 -14.191406 19.300781 -14.988281 17.09375 -15.71875 C 14.84375 -16.457031 12.585938 -17.285156 10.328125 -18.203125 C 8.078125 -19.066406 6.171875 -20.300781 4.609375 -21.90625 C 3.054688 -23.5 2.28125 -25.359375 2.28125 -27.484375 C 2.28125 -29.742188 2.691406 -31.648438 3.515625 -33.203125 C 4.335938 -34.765625 5.503906 -35.9375 7.015625 -36.71875 C 8.535156 -37.457031 10.117188 -37.976562 11.765625 -38.28125 C 13.367188 -38.539062 15.253906 -38.671875 17.421875 -38.671875 C 20.972656 -38.671875 23.742188 -38.410156 25.734375 -37.890625 C 26.429688 -37.671875 27.035156 -37.28125 27.546875 -36.71875 C 28.023438 -36.15625 28.265625 -35.503906 28.265625 -34.765625 C 28.265625 -33.859375 27.960938 -33.097656 27.359375 -32.484375 C 26.710938 -31.878906 25.929688 -31.578125 25.015625 -31.578125 Z M 25.015625 -31.578125 "/></g></g></g><g fill="#000000" fill-opacity="1"><g transform="translate(90.367234, 68.420234)"><g><path d="M 3.90625 -35.21875 C 3.90625 -36.082031 4.207031 -36.820312 4.8125 -37.4375 C 5.414062 -38.039062 6.148438 -38.34375 7.015625 -38.34375 L 26.578125 -38.34375 C 27.398438 -38.34375 28.132812 -38.039062 28.78125 -37.4375 C 29.394531 -36.820312 29.703125 -36.082031 29.703125 -35.21875 C 29.703125 -34.351562 29.394531 -33.617188 28.78125 -33.015625 C 28.132812 -32.410156 27.398438 -32.109375 26.578125 -32.109375 L 10.53125 -32.109375 L 10.53125 -21.578125 L 23.0625 -21.578125 C 23.882812 -21.578125 24.625 -21.273438 25.28125 -20.671875 C 25.882812 -20.054688 26.1875 -19.316406 26.1875 -18.453125 C 26.1875 -17.585938 25.882812 -16.851562 25.28125 -16.25 C 24.625 -15.644531 23.882812 -15.34375 23.0625 -15.34375 L 10.53125 -15.34375 L 10.53125 -6.234375 L 26.578125 -6.234375 C 27.398438 -6.234375 28.132812 -5.929688 28.78125 -5.328125 C 29.394531 -4.722656 29.703125 -3.988281 29.703125 -3.125 C 29.703125 -2.25 29.394531 -1.507812 28.78125 -0.90625 C 28.132812 -0.300781 27.398438 0 26.578125 0 L 7.015625 0 C 6.148438 0 5.414062 -0.300781 4.8125 -0.90625 C 4.207031 -1.507812 3.90625 -2.25 3.90625 -3.125 Z M 3.90625 -35.21875 "/></g></g></g><g fill="#000000" fill-opacity="1"><g transform="translate(175.312028, 68.420234)"><g><path d="M 18.125 -38.34375 C 19.34375 -38.34375 20.425781 -38.015625 21.375 -37.359375 C 22.332031 -36.671875 23.003906 -35.785156 23.390625 -34.703125 L 34.640625 -4.484375 C 34.765625 -4.097656 34.828125 -3.6875 34.828125 -3.25 C 34.828125 -2.34375 34.523438 -1.582031 33.921875 -0.96875 C 33.273438 -0.320312 32.492188 0 31.578125 0 C 30.109375 0 29.09375 -0.648438 28.53125 -1.953125 L 26 -8.703125 L 10.46875 -8.703125 L 7.921875 -1.953125 C 7.359375 -0.648438 6.34375 0 4.875 0 C 3.96875 0 3.207031 -0.320312 2.59375 -0.96875 C 1.945312 -1.582031 1.625 -2.34375 1.625 -3.25 C 1.625 -3.6875 1.6875 -4.097656 1.8125 -4.484375 L 13.0625 -34.703125 C 13.445312 -35.742188 14.117188 -36.609375 15.078125 -37.296875 C 15.984375 -37.992188 17 -38.34375 18.125 -38.34375 Z M 12.734375 -14.8125 L 23.71875 -14.8125 L 18.203125 -29.5625 Z M 12.734375 -14.8125 "/></g></g></g><g fill="#000000" fill-opacity="1"><g transform="translate(263.765753, 68.420234)"><g><path d="M 32.03125 -4.359375 C 32.164062 -4.003906 32.234375 -3.632812 32.234375 -3.25 C 32.234375 -2.34375 31.90625 -1.582031 31.25 -0.96875 C 30.601562 -0.320312 29.804688 0 28.859375 0 C 27.335938 0 26.316406 -0.734375 25.796875 -2.203125 L 24.234375 -6.828125 C 22.804688 -11.066406 20.726562 -13.1875 18 -13.1875 L 10.53125 -13.1875 L 10.53125 -3.3125 C 10.53125 -2.40625 10.203125 -1.625 9.546875 -0.96875 C 8.898438 -0.320312 8.125 0 7.21875 0 C 6.300781 0 5.519531 -0.320312 4.875 -0.96875 C 4.226562 -1.625 3.90625 -2.40625 3.90625 -3.3125 L 3.90625 -35.03125 C 3.90625 -35.9375 4.226562 -36.710938 4.875 -37.359375 C 5.519531 -38.015625 6.300781 -38.34375 7.21875 -38.34375 L 20.734375 -38.34375 C 22.160156 -38.34375 23.566406 -38.125 24.953125 -37.6875 C 26.296875 -37.257812 27.597656 -36.585938 28.859375 -35.671875 C 30.066406 -34.765625 31.0625 -33.488281 31.84375 -31.84375 C 32.582031 -30.195312 32.953125 -28.289062 32.953125 -26.125 C 32.953125 -25.125 32.863281 -24.128906 32.6875 -23.140625 C 32.507812 -22.097656 32.226562 -20.988281 31.84375 -19.8125 C 31.40625 -18.644531 30.734375 -17.609375 29.828125 -16.703125 C 28.921875 -15.796875 27.816406 -15.1875 26.515625 -14.875 C 27.679688 -13.789062 28.613281 -12.625 29.3125 -11.375 C 30 -10.113281 30.710938 -8.359375 31.453125 -6.109375 Z M 20.671875 -19.5 C 21.535156 -19.5 22.226562 -19.539062 22.75 -19.625 C 23.21875 -19.707031 23.78125 -19.945312 24.4375 -20.34375 C 25.082031 -20.6875 25.554688 -21.335938 25.859375 -22.296875 C 26.160156 -23.203125 26.3125 -24.410156 26.3125 -25.921875 C 26.3125 -30.046875 24.429688 -32.109375 20.671875 -32.109375 L 10.53125 -32.109375 L 10.53125 -19.5 Z M 20.671875 -19.5 "/></g></g></g><g fill="#000000" fill-opacity="1"><g transform="translate(351.309728, 68.420234)"><g><path d="M 21.25 0.390625 C 19.6875 0.390625 18.128906 0.21875 16.578125 -0.125 C 15.015625 -0.425781 13.34375 -1.054688 11.5625 -2.015625 C 9.789062 -2.921875 8.253906 -4.113281 6.953125 -5.59375 C 5.609375 -7.019531 4.503906 -8.96875 3.640625 -11.4375 C 2.734375 -13.863281 2.28125 -16.65625 2.28125 -19.8125 C 2.28125 -23.15625 2.863281 -26.082031 4.03125 -28.59375 C 5.15625 -31.101562 6.671875 -33.070312 8.578125 -34.5 C 10.484375 -35.894531 12.519531 -36.9375 14.6875 -37.625 C 16.8125 -38.320312 19 -38.671875 21.25 -38.671875 C 25.101562 -38.671875 28.414062 -37.847656 31.1875 -36.203125 C 32.226562 -35.628906 32.75 -34.738281 32.75 -33.53125 C 32.75 -32.707031 32.445312 -31.992188 31.84375 -31.390625 C 31.195312 -30.785156 30.460938 -30.484375 29.640625 -30.484375 C 29.203125 -30.484375 28.765625 -30.585938 28.328125 -30.796875 C 26.335938 -31.796875 23.957031 -32.296875 21.1875 -32.296875 C 19.582031 -32.296875 18.128906 -32.125 16.828125 -31.78125 C 15.484375 -31.382812 14.1875 -30.753906 12.9375 -29.890625 C 11.675781 -29.023438 10.695312 -27.726562 10 -26 C 9.269531 -24.21875 8.90625 -22.09375 8.90625 -19.625 C 8.90625 -17.332031 9.1875 -15.335938 9.75 -13.640625 C 10.3125 -11.910156 11.023438 -10.59375 11.890625 -9.6875 C 12.710938 -8.726562 13.707031 -7.96875 14.875 -7.40625 C 16.050781 -6.800781 17.132812 -6.410156 18.125 -6.234375 C 19.082031 -6.066406 20.101562 -5.984375 21.1875 -5.984375 C 23.957031 -5.984375 26.335938 -6.476562 28.328125 -7.46875 C 28.765625 -7.6875 29.203125 -7.796875 29.640625 -7.796875 C 30.460938 -7.796875 31.195312 -7.492188 31.84375 -6.890625 C 32.445312 -6.285156 32.75 -5.570312 32.75 -4.75 C 32.75 -3.53125 32.226562 -2.640625 31.1875 -2.078125 C 28.414062 -0.429688 25.101562 0.390625 21.25 0.390625 Z M 21.25 0.390625 "/></g></g></g><g fill="#000000" fill-opacity="1"><g transform="translate(438.658812, 68.420234)"><g><path d="M 28.328125 -15.34375 L 10.53125 -15.34375 L 10.53125 -3.3125 C 10.53125 -2.40625 10.203125 -1.625 9.546875 -0.96875 C 8.898438 -0.320312 8.125 0 7.21875 0 C 6.300781 0 5.519531 -0.320312 4.875 -0.96875 C 4.226562 -1.625 3.90625 -2.40625 3.90625 -3.3125 L 3.90625 -35.03125 C 3.90625 -35.9375 4.226562 -36.710938 4.875 -37.359375 C 5.519531 -38.015625 6.300781 -38.34375 7.21875 -38.34375 C 8.125 -38.34375 8.898438 -38.015625 9.546875 -37.359375 C 10.203125 -36.710938 10.53125 -35.9375 10.53125 -35.03125 L 10.53125 -21.640625 L 28.328125 -21.640625 L 28.328125 -35.03125 C 28.328125 -35.9375 28.65625 -36.710938 29.3125 -37.359375 C 29.957031 -38.015625 30.734375 -38.34375 31.640625 -38.34375 C 32.554688 -38.34375 33.335938 -38.015625 33.984375 -37.359375 C 34.640625 -36.710938 34.96875 -35.9375 34.96875 -35.03125 L 34.96875 -3.3125 C 34.96875 -2.40625 34.640625 -1.625 33.984375 -0.96875 C 33.335938 -0.320312 32.554688 0 31.640625 0 C 30.734375 0 29.957031 -0.320312 29.3125 -0.96875 C 28.65625 -1.625 28.328125 -2.40625 28.328125 -3.3125 Z M 28.328125 -15.34375 "/></g></g></g></g></g></svg>